<mxfile host="65bd71144e">
    <diagram id="uudNLYWjPwZzJZCucFc3" name="Page-1">
        <mxGraphModel dx="1220" dy="480" grid="1" gridSize="10" guides="1" tooltips="1" connect="1" arrows="1" fold="1" page="1" pageScale="1" pageWidth="827" pageHeight="1169" math="0" shadow="0">
            <root>
                <mxCell id="0"/>
                <mxCell id="1" parent="0"/>
                <mxCell id="208" value="" style="group" vertex="1" connectable="0" parent="1">
                    <mxGeometry x="7" y="80" width="813.77" height="419.59" as="geometry"/>
                </mxCell>
                <mxCell id="74" style="edgeStyle=none;curved=1;rounded=0;orthogonalLoop=1;jettySize=auto;html=1;endArrow=none;endFill=0;startSize=14;endSize=14;sourcePerimeterSpacing=8;targetPerimeterSpacing=8;" parent="208" source="71" edge="1">
                    <mxGeometry relative="1" as="geometry">
                        <mxPoint x="729.4415025906735" y="151.7908831588493" as="targetPoint"/>
                    </mxGeometry>
                </mxCell>
                <mxCell id="47" value="ガソリン&lt;br style=&quot;font-size: 15px;&quot;&gt;ステーション" style="text;html=1;align=center;verticalAlign=middle;resizable=0;points=[];autosize=1;strokeColor=none;fillColor=none;fontSize=15;fontStyle=1" parent="208" vertex="1">
                    <mxGeometry x="514.8222901554404" y="22.46" width="110" height="50" as="geometry"/>
                </mxCell>
                <mxCell id="49" value="" style="ellipse;whiteSpace=wrap;html=1;fillColor=#f5f5f5;fontColor=#333333;strokeColor=#666666;" parent="208" vertex="1">
                    <mxGeometry x="274.0676165803109" y="185.5221905274825" width="16.86569948186529" height="16.86565368431659" as="geometry"/>
                </mxCell>
                <mxCell id="71" value="" style="ellipse;whiteSpace=wrap;html=1;fillColor=#f5f5f5;fontColor=#333333;strokeColor=#666666;" parent="208" vertex="1">
                    <mxGeometry x="510.18740932642487" y="193.95501736964079" width="16.86569948186529" height="16.86565368431659" as="geometry"/>
                </mxCell>
                <mxCell id="72" style="edgeStyle=none;curved=1;rounded=0;orthogonalLoop=1;jettySize=auto;html=1;endArrow=none;endFill=0;startSize=14;endSize=14;sourcePerimeterSpacing=8;targetPerimeterSpacing=8;" parent="208" source="49" target="71" edge="1">
                    <mxGeometry relative="1" as="geometry"/>
                </mxCell>
                <mxCell id="76" style="edgeStyle=none;curved=1;rounded=0;orthogonalLoop=1;jettySize=auto;html=1;endArrow=none;endFill=0;startSize=14;endSize=14;sourcePerimeterSpacing=8;targetPerimeterSpacing=8;" parent="208" source="73" edge="1">
                    <mxGeometry relative="1" as="geometry">
                        <mxPoint x="664.1937749747693" y="275.9827354255974" as="targetPoint"/>
                    </mxGeometry>
                </mxCell>
                <mxCell id="73" value="" style="ellipse;whiteSpace=wrap;html=1;fillColor=#f5f5f5;fontColor=#333333;strokeColor=#666666;" parent="208" vertex="1">
                    <mxGeometry x="729.4415025906735" y="134.92522947453273" width="16.86569948186529" height="16.86565368431659" as="geometry"/>
                </mxCell>
                <mxCell id="93" style="edgeStyle=none;curved=1;rounded=0;orthogonalLoop=1;jettySize=auto;html=1;entryX=0;entryY=1;entryDx=0;entryDy=0;endArrow=none;endFill=0;startSize=14;endSize=14;sourcePerimeterSpacing=8;targetPerimeterSpacing=8;" parent="208" target="49" edge="1">
                    <mxGeometry relative="1" as="geometry">
                        <mxPoint x="194.33995054066548" y="282.11529375691543" as="sourcePoint"/>
                    </mxGeometry>
                </mxCell>
                <mxCell id="94" value="" style="ellipse;whiteSpace=wrap;html=1;fillColor=#f5f5f5;fontColor=#333333;strokeColor=#666666;" parent="208" vertex="1">
                    <mxGeometry x="341.53041450777204" y="261.41763210690715" width="16.86569948186529" height="16.86565368431659" as="geometry"/>
                </mxCell>
                <mxCell id="95" style="edgeStyle=none;curved=1;rounded=0;orthogonalLoop=1;jettySize=auto;html=1;endArrow=none;endFill=0;startSize=14;endSize=14;sourcePerimeterSpacing=8;targetPerimeterSpacing=8;" parent="208" source="49" target="94" edge="1">
                    <mxGeometry relative="1" as="geometry"/>
                </mxCell>
                <mxCell id="107" value="ガソリン&lt;br style=&quot;font-size: 15px;&quot;&gt;備蓄基地" style="text;html=1;align=center;verticalAlign=middle;resizable=0;points=[];autosize=1;strokeColor=none;fillColor=none;fontSize=15;fontStyle=1" parent="208" vertex="1">
                    <mxGeometry x="19.03" y="118.35392210589953" width="80" height="50" as="geometry"/>
                </mxCell>
                <mxCell id="108" value="" style="shape=image;imageAspect=0;aspect=fixed;verticalLabelPosition=bottom;verticalAlign=top;image=data:image/png,iVBORw0KGgoAAAANSUhEUgAAASwAAAEsCAMAAABOo35HAAAABGdBTUEAALGPC/xhBQAAAAFzUkdCAK7OHOkAAAAgY0hSTQAAeiYAAICEAAD6AAAAgOgAAHUwAADqYAAAOpgAABdwnLpRPAAAADZQTFRFAAAAQ0A/Q0A/Q0A/Q0A/Q0A/Q0A/Q0A/Q0A/Q0A/Q0A/Q0A/Q0A/Q0A/Q0A/Q0A/Q0A/////XhJvRwAAABB0Uk5TABBQgECv72DPn48gv99wMEtF3+QAAAABYktHRBHitT26AAAACXBIWXMAAABIAAAASABGyWs+AAAGNklEQVR42u2d12KjMBAAKaKb8v9few/BphibFdGu5dzM2+UUBwa0WlUnCQAAAAAAAAAAAAAAAAAAAAAAAAAAAAAAAAAAAAAAAAAAAAAAAAAAAAAAAAAAAAAAAAAAAAAAAACAJ2mWx4GLXpUrpmgo8zTqtyoiVdM0TWUVsat6io1mfX2VqPpm/6uracr9L6+xkNVOMeL8L8+g8nZRuppu9+u7+f+KHs38p/rBKfPzd+qj/5ovYnDZ/XKm0VvW1KnLKufHot9ev3n++VL3xnIbgjxktdp3UM2ttUFuI5P1uCJ/WaX2HRRGD+Uh6zyqz69WtpG1q7f19qfbX9G+gzEiWe2mHs6ydp+1++kc6QrdG8jm6J5EJGvcVCqRrNEkxDd2tVAsK+nXb7tI1v1XctUb6O1qoVxWs75zmazBoIZ0Rs2In6xs3W7KZKWTfoivDLtVs6zydkC/kXW/cw9ZFiG+MetVyfOsVbrgIcvph/jaqp/gJ2v+5+AhyyDEW4YsD1nZKjpIZamHeGeSy/nLmoNW7SNLPcRXFtnJBVn3Ho+PLPUQn9t0qXxbw4eL0UeWdoi/GaakHnnW5k0Ty9IO8ccXEoGsYblvuSzlEG/Yi/aT5a7IUg7xZmPXF2UVXrJ0Q3wXrazVY/SQpRrinWnmoC9LNcR/RJYoz0qWrNRHlmaIj1hW/ZDhIyt9ekP/C1m3S7Lu0y8NsgSy5h74lCJLkE73q8GdPyBL1De8LCtXC/ERpw5XZXVqIT5iWfVFWXoh/s8lpZoh/i/KUgvxf61vqBviYx91aC7IUgvxppM7PnnWpfEs5RD/iZFSkazVxKG3LK0QX+j1O38nq70yBq8c4j8xuyOSdVtG8d7KekfoEP/184bCtjUIo2lzKJe1zmmuy2pUrv971zq8J3CIry1nWeWy2tNVNKJNKoFXUrVqwz/BnuGLAeRSIKtWifBFXK7SdXR4kSSk+e0NKgvWO9sc/sojvJQ431RCfG2algpp1sHhkiydTTat4Tp4MeX5OnjhR4QN8ZY7LK5d0zVZrUqIL02XaPnUwvY3sjqVEN9YroSXtYXb57eTVa3aPEGIdxrvfBnPWQq7BQs7WfkqjxKMETiVelh3kbiqdttSo5J17ziUTeY+z3Dbb3iOStaX7L6PQ9bmz8fDGKesJMYTQ6okUlnpLWJXVydVcrV+XGQ1sXdJxLKSri2jUVVXR9llRLKSJBmrOA5m645T8bhkxUpEsjoXO3U0sqrpW/i8rHFC1pcn78hClh2bwUk3/JwfmSLrMFFdvGSrQ1XrITWX1Sw5YfP8TI9SR2GxQAzLLbt+dxjbq+Ny1WQtn1gd9HoO5vaFxcIPzx8c1duPH5LVHMeL9HiS46xY+B5ZLV//oS6rOY8YHsXCuyo9Vstoy2pkbZGwWPg62PusLVKWtXR9yqZyzmXN8iTzox7SczHVuLUMUfatc84NSwArR2NZy4qnRwOT5uV+rkVaTG+KbDU02BVP0xtGspqj1qWr91cjLBa+EpZH7cijWa5MZd1nxPptlH4cMD5uJ85OiqnNU+/jonu1jls1KS1e3G13P3v5Jz8UFgtP/2JZzF1ie1xetbuTv3ykV4opTicexH1Z+XCyjtaHHGQ3wmLK/em5r2i1yyKXZEqtLKEy+cKCo40zpdHi7lzy4ZnsGrJPjWq9+WqXoKuwO8l2l1G2K8ZiiLr3G2cqwva/slKwN0i4hchyaY1EVh1+s9v2SyTevDKFrFijMyFWnr5Z+6/gUOx45afBKPcoZjrVarvDdJUJv2nmhpWRN8WUjmkuTltDO1ePfSmvE6jRo5hab+d1nlUbynp9Atyw2d4jLBZ+4O8sgzfdI5KfdPoar2JqD/Nl39B0ucyXjjqMSrvHT/hj41nKr9bzEGgyPA+BPoqVxiOlg99IqTIBxuBVzzzwG4O3qognHdLGpt/6y9mdj9n6xnnDT9kq0mvFwtuqI3K1jujvhpClxcLXRPlaB5M2cf/W3LpfFFPow0pX0RjpavtVezf+slh4hOuzzJj3D1RjkGIKr9e88i+W/aQAAAAAAAAAAAAAAAAAAAAAAAAAAAAAAAAAAAAAAAAAAAAAAAAAAAAAAAAAAAAAAAAAAAAAAAAA8P38A0JGL0FCmQjtAAAAJXRFWHRkYXRlOmNyZWF0ZQAyMDIwLTA5LTI0VDE0OjExOjUwKzA5OjAwlMBZnwAAACV0RVh0ZGF0ZTptb2RpZnkAMjAyMC0wOS0yNFQxNDoxMTo1MCswOTowMOWd4SMAAAAZdEVYdFNvZnR3YXJlAEFkb2JlIEltYWdlUmVhZHlxyWU8AAAAAElFTkSuQmCC;rotation=-5;" parent="208" vertex="1">
                    <mxGeometry x="172.8776683937824" y="86.43413421079148" width="118.05918182549523" height="118.05918182549523" as="geometry"/>
                </mxCell>
                <mxCell id="109" value="タンクローリ" style="text;html=1;align=center;verticalAlign=middle;resizable=0;points=[];autosize=1;strokeColor=none;fillColor=none;fontSize=15;fontStyle=1" parent="208" vertex="1">
                    <mxGeometry x="169.06626943005182" y="88.05848052647488" width="110" height="30" as="geometry"/>
                </mxCell>
                <mxCell id="140" style="edgeStyle=none;curved=1;rounded=0;orthogonalLoop=1;jettySize=auto;html=1;entryX=0.5;entryY=1;entryDx=0;entryDy=0;endArrow=none;endFill=0;startSize=14;endSize=14;sourcePerimeterSpacing=8;targetPerimeterSpacing=8;" parent="208" source="117" target="71" edge="1">
                    <mxGeometry relative="1" as="geometry"/>
                </mxCell>
                <mxCell id="117" value="" style="ellipse;whiteSpace=wrap;html=1;fillColor=#f5f5f5;fontColor=#333333;strokeColor=#666666;sketch=0;" parent="208" vertex="1">
                    <mxGeometry x="459.590310880829" y="261.41763210690715" width="16.86569948186529" height="16.86565368431659" as="geometry"/>
                </mxCell>
                <mxCell id="118" style="edgeStyle=none;curved=1;rounded=0;orthogonalLoop=1;jettySize=auto;html=1;endArrow=none;endFill=0;startSize=14;endSize=14;sourcePerimeterSpacing=8;targetPerimeterSpacing=8;" parent="208" source="94" target="117" edge="1">
                    <mxGeometry relative="1" as="geometry"/>
                </mxCell>
                <mxCell id="119" value="" style="ellipse;whiteSpace=wrap;html=1;fillColor=#f5f5f5;fontColor=#333333;strokeColor=#666666;sketch=0;" parent="208" vertex="1">
                    <mxGeometry x="653.5458549222798" y="278.2832857912237" width="16.86569948186529" height="16.86565368431659" as="geometry"/>
                </mxCell>
                <mxCell id="120" style="edgeStyle=none;curved=1;rounded=0;orthogonalLoop=1;jettySize=auto;html=1;endArrow=none;endFill=0;startSize=14;endSize=14;sourcePerimeterSpacing=8;targetPerimeterSpacing=8;" parent="208" source="117" target="119" edge="1">
                    <mxGeometry relative="1" as="geometry"/>
                </mxCell>
                <mxCell id="121" value="" style="ellipse;whiteSpace=wrap;html=1;fillColor=#f5f5f5;fontColor=#333333;strokeColor=#666666;sketch=0;" parent="208" vertex="1">
                    <mxGeometry x="552.351658031088" y="328.88024684417354" width="16.86569948186529" height="16.86565368431659" as="geometry"/>
                </mxCell>
                <mxCell id="122" style="edgeStyle=none;curved=1;rounded=0;orthogonalLoop=1;jettySize=auto;html=1;endArrow=none;endFill=0;startSize=14;endSize=14;sourcePerimeterSpacing=8;targetPerimeterSpacing=8;" parent="208" source="119" target="121" edge="1">
                    <mxGeometry relative="1" as="geometry"/>
                </mxCell>
                <mxCell id="131" style="edgeStyle=none;curved=1;rounded=0;orthogonalLoop=1;jettySize=auto;html=1;entryX=0;entryY=1;entryDx=0;entryDy=0;endArrow=none;endFill=0;startSize=14;endSize=14;sourcePerimeterSpacing=8;targetPerimeterSpacing=8;" parent="208" source="123" target="117" edge="1">
                    <mxGeometry relative="1" as="geometry"/>
                </mxCell>
                <mxCell id="123" value="" style="ellipse;whiteSpace=wrap;html=1;fillColor=#f5f5f5;fontColor=#333333;strokeColor=#666666;sketch=0;" parent="208" vertex="1">
                    <mxGeometry x="383.6946632124353" y="328.88024684417354" width="16.86569948186529" height="16.86565368431659" as="geometry"/>
                </mxCell>
                <mxCell id="124" style="edgeStyle=none;curved=1;rounded=0;orthogonalLoop=1;jettySize=auto;html=1;endArrow=none;endFill=0;startSize=14;endSize=14;sourcePerimeterSpacing=8;targetPerimeterSpacing=8;" parent="208" source="121" target="123" edge="1">
                    <mxGeometry relative="1" as="geometry"/>
                </mxCell>
                <mxCell id="132" style="edgeStyle=none;curved=1;rounded=0;orthogonalLoop=1;jettySize=auto;html=1;entryX=0.5;entryY=1;entryDx=0;entryDy=0;endArrow=none;endFill=0;startSize=14;endSize=14;sourcePerimeterSpacing=8;targetPerimeterSpacing=8;" parent="208" source="125" target="94" edge="1">
                    <mxGeometry relative="1" as="geometry"/>
                </mxCell>
                <mxCell id="125" value="" style="ellipse;whiteSpace=wrap;html=1;fillColor=#f5f5f5;fontColor=#333333;strokeColor=#666666;sketch=0;" parent="208" vertex="1">
                    <mxGeometry x="290.9333160621762" y="324.66383342309433" width="16.86569948186529" height="16.86565368431659" as="geometry"/>
                </mxCell>
                <mxCell id="126" style="edgeStyle=none;curved=1;rounded=0;orthogonalLoop=1;jettySize=auto;html=1;endArrow=none;endFill=0;startSize=14;endSize=14;sourcePerimeterSpacing=8;targetPerimeterSpacing=8;" parent="208" source="123" target="125" edge="1">
                    <mxGeometry relative="1" as="geometry"/>
                </mxCell>
                <mxCell id="127" value="" style="ellipse;whiteSpace=wrap;html=1;fillColor=#f5f5f5;fontColor=#333333;strokeColor=#666666;sketch=0;" parent="208" vertex="1">
                    <mxGeometry x="215.03766839378238" y="345.74590052849015" width="16.86569948186529" height="16.86565368431659" as="geometry"/>
                </mxCell>
                <mxCell id="128" style="edgeStyle=none;curved=1;rounded=0;orthogonalLoop=1;jettySize=auto;html=1;endArrow=none;endFill=0;startSize=14;endSize=14;sourcePerimeterSpacing=8;targetPerimeterSpacing=8;" parent="208" source="125" target="127" edge="1">
                    <mxGeometry relative="1" as="geometry"/>
                </mxCell>
                <mxCell id="129" value="" style="ellipse;whiteSpace=wrap;html=1;fillColor=#f5f5f5;fontColor=#333333;strokeColor=#666666;sketch=0;" parent="208" vertex="1">
                    <mxGeometry x="164.44056994818655" y="278.2832857912237" width="16.86569948186529" height="16.86565368431659" as="geometry"/>
                </mxCell>
                <mxCell id="130" style="edgeStyle=none;curved=1;rounded=0;orthogonalLoop=1;jettySize=auto;html=1;endArrow=none;endFill=0;startSize=14;endSize=14;sourcePerimeterSpacing=8;targetPerimeterSpacing=8;" parent="208" source="127" target="129" edge="1">
                    <mxGeometry relative="1" as="geometry"/>
                </mxCell>
                <mxCell id="135" style="edgeStyle=none;curved=1;rounded=0;orthogonalLoop=1;jettySize=auto;html=1;entryX=0;entryY=1;entryDx=0;entryDy=0;endArrow=none;endFill=0;startSize=14;endSize=14;sourcePerimeterSpacing=8;targetPerimeterSpacing=8;" parent="208" source="133" target="73" edge="1">
                    <mxGeometry relative="1" as="geometry"/>
                </mxCell>
                <mxCell id="133" value="" style="ellipse;whiteSpace=wrap;html=1;fillColor=#f5f5f5;fontColor=#333333;strokeColor=#666666;sketch=0;" parent="208" vertex="1">
                    <mxGeometry x="527.0531088082902" y="109.62674894805785" width="16.86569948186529" height="16.86565368431659" as="geometry"/>
                </mxCell>
                <mxCell id="136" style="edgeStyle=none;curved=1;rounded=0;orthogonalLoop=1;jettySize=auto;html=1;entryX=0;entryY=1;entryDx=0;entryDy=0;endArrow=none;endFill=0;startSize=14;endSize=14;sourcePerimeterSpacing=8;targetPerimeterSpacing=8;" parent="208" source="49" target="133" edge="1">
                    <mxGeometry relative="1" as="geometry"/>
                </mxCell>
                <mxCell id="134" style="edgeStyle=none;curved=1;rounded=0;orthogonalLoop=1;jettySize=auto;html=1;endArrow=none;endFill=0;startSize=14;endSize=14;sourcePerimeterSpacing=8;targetPerimeterSpacing=8;" parent="208" source="71" target="133" edge="1">
                    <mxGeometry relative="1" as="geometry"/>
                </mxCell>
                <mxCell id="141" value="" style="ellipse;whiteSpace=wrap;html=1;fillColor=#f5f5f5;fontColor=#333333;strokeColor=#666666;sketch=0;" parent="208" vertex="1">
                    <mxGeometry x="96.97777202072538" y="193.95501736964079" width="16.86569948186529" height="16.86565368431659" as="geometry"/>
                </mxCell>
                <mxCell id="143" style="edgeStyle=none;curved=1;rounded=0;orthogonalLoop=1;jettySize=auto;html=1;entryX=1;entryY=0.5;entryDx=0;entryDy=0;endArrow=none;endFill=0;startSize=14;endSize=14;sourcePerimeterSpacing=8;targetPerimeterSpacing=8;" parent="208" source="49" target="141" edge="1">
                    <mxGeometry relative="1" as="geometry"/>
                </mxCell>
                <mxCell id="142" style="edgeStyle=none;curved=1;rounded=0;orthogonalLoop=1;jettySize=auto;html=1;endArrow=none;endFill=0;startSize=14;endSize=14;sourcePerimeterSpacing=8;targetPerimeterSpacing=8;" parent="208" source="129" target="141" edge="1">
                    <mxGeometry relative="1" as="geometry"/>
                </mxCell>
                <mxCell id="144" value="" style="shape=image;imageAspect=0;aspect=fixed;verticalLabelPosition=bottom;verticalAlign=top;sketch=0;image=data:image/png,iVBORw0KGgoAAAANSUhEUgAAAG4AAABuCAMAAADxhdbJAAAABGdBTUEAALGPC/xhBQAAAAFzUkdCAK7OHOkAAAAgY0hSTQAAeiYAAICEAAD6AAAAgOgAAHUwAADqYAAAOpgAABdwnLpRPAAAAlVQTFRFAAAAQ0A/Q0A/Q0A/Q0A/Q0A/Q0A/Q0A/Q0A/Q0A/Q0A/Q0A/Q0A/Q0A/Q0A/Q0A/Q0A/Q0A/Q0A/Q0A/Q0A/Q0A/Q0A/Q0A/Q0A/Q0A/Q0A/Q0A/Q0A/Q0A/Q0A/Q0A/Q0A/Q0A/Q0A/Q0A/Q0A/Q0A/Q0A/Q0A/Q0A/Q0A/Q0A/Q0A/Q0A/Q0A/Q0A/Q0A/Q0A/Q0A/Q0A/Q0A/Q0A/Q0A/Q0A/Q0A/Q0A/Q0A/Q0A/Q0A/Q0A/Q0A/Q0A/Q0A/Q0A/Q0A/Q0A/Q0A/Q0A/Q0A/Q0A/Q0A/Q0A/Q0A/Q0A/Q0A/Q0A/Q0A/Q0A/Q0A/Q0A/Q0A/Q0A/Q0A/Q0A/Q0A/Q0A/Q0A/Q0A/Q0A/Q0A/Q0A/Q0A/Q0A/Q0A/Q0A/Q0A/Q0A/Q0A/Q0A/Q0A/Q0A/Q0A/Q0A/Q0A/Q0A/Q0A/Q0A/Q0A/Q0A/Q0A/Q0A/Q0A/Q0A/Q0A/Q0A/Q0A/Q0A/Q0A/Q0A/Q0A/Q0A/Q0A/Q0A/Q0A/Q0A/Q0A/Q0A/Q0A/Q0A/Q0A/Q0A/Q0A/Q0A/Q0A/Q0A/Q0A/Q0A/Q0A/Q0A/Q0A/Q0A/Q0A/Q0A/Q0A/Q0A/Q0A/Q0A/Q0A/Q0A/Q0A/Q0A/Q0A/Q0A/Q0A/Q0A/Q0A/Q0A/Q0A/Q0A/Q0A/Q0A/Q0A/Q0A/Q0A/Q0A/Q0A/Q0A/Q0A/Q0A/Q0A/Q0A/Q0A/Q0A/Q0A/Q0A/Q0A/Q0A/Q0A/Q0A/Q0A/Q0A/Q0A/Q0A/Q0A/Q0A/Q0A/Q0A/Q0A/Q0A/Q0A/Q0A/Q0A/Q0A/Q0A/Q0A/Q0A/Q0A/////eLBmSgAAAMV0Uk5TAAABCBQoO09hb3AFG0R0pcrg7/j6+3YXTZXQ8Pz990spfc305MeohWdTSEdo5QQujd3+j1UQA1bxGXfa3JdKGJgGv/nVeoTrIgIsrzBAyGtMvjqkHtv1NdESH8CcDJm0YM8t01ILnYfuHQ+zW1yyDvOt6bURhhrMlIj2vDaiq+Lt5iVpivK2QsPeJD+pDbkKu9IWxr0HycVlVKw8t7jW6uxJ2SYg5645lrF8Tt+TFVHhoDLXL4zLbn+QE1Anm1ej2HsqxJ+Aot1tAAAAAWJLR0TG+gJ6zQAAAAlwSFlzAAAASAAAAEgARslrPgAABm1JREFUaN7tmutfU0cax+cEkBZ0BeF4wGSOFxQLWWI5mEAghcUUMRaotiEVrRYELRd3pCimRePgVKj0htadUtu1LUHpBVpr0ba2u71s+/u/9oX0zTbGk3Nit7uf/N6dz3nm853nMs8zuRCSUUYZZZRRRn98ObKyc1bkPvRwXt7DD+WuyMnOcjwwlJK/ctWfVhcUrikqVlVVLS5aU1iweu2qlfnKg/BLKyld53QBAKiu6zoFALic60rXa+n2MX/Dxk1lAPTNW8q3PlJR6XZXVvx5a/mWKh1A2aaNG/LTGEXPtkerKQxnQc32DV6fQ1EIIURRHD7vhtqagjoDtPrRbZ40xdThr29wQQ081tj02zQp+U3r/xJQ4Wqo96clpM2VO4JQH2/Jab6nRU7L4yqCOyqb7QdS29kKGti4K5TMKrRrY4CidadmM6Ch3U8EUba67X6JUTxtq8sQfGJ3yBatvYMa1U96TWxa8T5ZbdCOdhu80J6A4dr7lM+cte+pvS4jsMcyz1dSiODTYdP5UMJPB1FY4rPoW2UnIqWpZF/RHougs9KSf8oz+4xgTVdKtaZ01QSNfc9YqE9l/wFDfbYr1WVdz6rGgf2p8w4eovQ5f8rrFP9zlB46mHKZdNehp81KVNp6UNedarkc7kVrn6Wch/pa0Xs4tTVHjlL1+SxrFZ31vEqPHkkpIuv70TFgsQEqAx3oX5/K4sEho+yY5Xni+GvEYMdT2F/JsDHktd78vEPGcIl59w6+gDUlNmaJUrIGL5g+DMqKEZw4aWeSnDyBkRVm9+sZpXq3rZuAo1unox6Txqei6A3bG8vhXkRPmbRtrMOLHns4z4uoazTZFl6iY7k2Lx1K7hh9yVxTOn4aDfvtXqn2N+D0/Y/emVgsdtaJkfKYTZWPwHk2FoudSYqrRZpVmxS3h3PuBB0ZB1o5X37gnHMegXqOc8436whWcc55VRD6Zs45P6ciwjnnfITCyTnnvBUYX37Yk7yfCCFi6K+odxkvCyGEOI+JY0IIISbBXxFCiLYL6D0jhBBnenGhTQghXuGYFEIIcWwC54UQQrxsuOor+hETQty3t4TOYurVbpXmEkIIWQvna4QQQl5H9S5CCHnjTUSzCSEkO4o33yCEkF3VeJ0QQshrTqwlhBCSS9XuV6dw1kxpTl/Epbfs4966hIvTZtr5ZVzw2sd5L+CymaHi3YIDg/ZxgwewxSTub8d/V9zv5l1ISu1tzGjvuOgVKaWULXCuklJK+S6mcqSUMvsiNq2UUsqVm3AxW0opc6bwrpRSylVOtEgppbxCXe9oM+jQpExenO8x9vdxOK/2GChgjDH2PopnGGOMVSFymjHGJj+A8ypjjF114oNJxhg7HUEVY4yxmWK8zxhjrABGz1UnPpxk7L0/UhObjccDOoY745yitSGeSA39UAvjnWPQA/HEBq2gPN45DD0Qj88mv5Jq2lwUJ65pjRMY9WuJdOoQrrdr4jKicwnfa/5RTDRq104gOqdpWSYqc36afFSHlsRp9tSg6jBJUnihFtR9RKbnTR+EDC6Dy+AyuP8D3MdZ1nBZH1vCXW90WME5Gq9bwiG6W0kdp+yOwhqOfpLoO7HkOMX/CbWGU43i0pNKajjlZGmxoVrCDcWhjw6mhhsc1REfsoT7dGERkc8+TwX3+WcRLC58au3cNd/4AkU3BxxmcY6Bm0X44kaz1WPuqeVQJ78MmcOFvpxUwWs91ruKz73OMJa6j5jBHeleMox1bp+dJua4NVSM4ZvbPPfDebbdHEbx0C2HvZ6p+G+Pg8brwyHl3jglFK6PU4zf9iu2W/T09g4Xir76+prvXjjfta+/KoKrY/t0OiaCY+CbRQp16U77t6Hf4kLftt9ZUkEXv/m1hO0OIMV36/aUC4Zz5vx3/xicvvMrrksOzn13fsZpwDV1+5ZPSdu8U2Tb1n1jBmhkasfRt5dxizv/ubc6QmGM7dvaJpX0jldP+Psffozc/RR1F2cAACI//vB92PMAprmSH579ab7nXNEyjk6c65n/aTb8nz/Ipu/yoIRk0+HyZVx84V9NMqT8D91VmtzuviX8vODOi+CXSncizc7jw0fcNy5hqS/he3flL4jkuRd+xlKf292UFFeh6zqFS9eDgKonlgqjSNfp3b8iJDZAUNddoLquVyTFXVHTrCtJcXN5adYcySijjDLKKKP/vv4NTaOaFVO5XDgAAAAldEVYdGRhdGU6Y3JlYXRlADIwMjAtMDktMjRUMTQ6MTI6NTErMDk6MDDZgOkoAAAAJXRFWHRkYXRlOm1vZGlmeQAyMDIwLTA5LTI0VDE0OjEyOjUxKzA5OjAwqN1RlAAAABl0RVh0U29mdHdhcmUAQWRvYmUgSW1hZ2VSZWFkeXHJZTwAAAAASUVORK5CYII=;" parent="208" vertex="1">
                    <mxGeometry x="21.082124352331608" y="151.7908831588493" width="75.89518831638979" height="75.89518831638979" as="geometry"/>
                </mxCell>
                <mxCell id="162" value="" style="group" parent="208" vertex="1" connectable="0">
                    <mxGeometry x="265.6347668393783" y="242.44377171205102" width="67.46279792746115" height="54.81337447402892" as="geometry"/>
                </mxCell>
                <mxCell id="163" value="" style="rounded=0;whiteSpace=wrap;html=1;sketch=0;fillColor=#f5f5f5;fontColor=#333333;strokeColor=#666666;" parent="162" vertex="1">
                    <mxGeometry x="59.96693149107657" y="5.138753856940212" width="7.4958664363845715" height="44.535866760148494" as="geometry"/>
                </mxCell>
                <mxCell id="164" value="" style="rounded=0;whiteSpace=wrap;html=1;sketch=0;fillColor=#fa6800;strokeColor=#C73500;fontColor=#000000;" parent="162" vertex="1">
                    <mxGeometry x="59.974427357512965" y="33.73130736863318" width="7.488370569948187" height="15.938042731679177" as="geometry"/>
                </mxCell>
                <mxCell id="165" value="" style="shape=image;imageAspect=0;aspect=fixed;verticalLabelPosition=bottom;verticalAlign=top;sketch=0;image=data:image/png,iVBORw0KGgoAAAANSUhEUgAAAG4AAABuCAMAAADxhdbJAAAABGdBTUEAALGPC/xhBQAAAAFzUkdCAK7OHOkAAAAgY0hSTQAAeiYAAICEAAD6AAAAgOgAAHUwAADqYAAAOpgAABdwnLpRPAAAAqNQTFRFAAAAQ0A/Q0A/Q0A/Q0A/Q0A/Q0A/Q0A/Q0A/Q0A/Q0A/Q0A/Q0A/Q0A/Q0A/Q0A/Q0A/Q0A/Q0A/Q0A/Q0A/Q0A/Q0A/Q0A/Q0A/Q0A/Q0A/Q0A/Q0A/Q0A/Q0A/Q0A/Q0A/Q0A/Q0A/Q0A/Q0A/Q0A/Q0A/Q0A/Q0A/Q0A/Q0A/Q0A/Q0A/Q0A/Q0A/Q0A/Q0A/Q0A/Q0A/Q0A/Q0A/Q0A/Q0A/Q0A/Q0A/Q0A/Q0A/Q0A/Q0A/Q0A/Q0A/Q0A/Q0A/Q0A/Q0A/Q0A/Q0A/Q0A/Q0A/Q0A/Q0A/Q0A/Q0A/Q0A/Q0A/Q0A/Q0A/Q0A/Q0A/Q0A/Q0A/Q0A/Q0A/Q0A/Q0A/Q0A/Q0A/Q0A/Q0A/Q0A/Q0A/Q0A/Q0A/Q0A/Q0A/Q0A/Q0A/Q0A/Q0A/Q0A/Q0A/Q0A/Q0A/Q0A/Q0A/Q0A/Q0A/Q0A/Q0A/Q0A/Q0A/Q0A/Q0A/Q0A/Q0A/Q0A/Q0A/Q0A/Q0A/Q0A/Q0A/Q0A/Q0A/Q0A/Q0A/Q0A/Q0A/Q0A/Q0A/Q0A/Q0A/Q0A/Q0A/Q0A/Q0A/Q0A/Q0A/Q0A/Q0A/Q0A/Q0A/Q0A/Q0A/Q0A/Q0A/Q0A/Q0A/Q0A/Q0A/Q0A/Q0A/Q0A/Q0A/Q0A/Q0A/Q0A/Q0A/Q0A/Q0A/Q0A/Q0A/Q0A/Q0A/Q0A/Q0A/Q0A/Q0A/Q0A/Q0A/Q0A/Q0A/Q0A/Q0A/Q0A/Q0A/Q0A/Q0A/Q0A/Q0A/Q0A/Q0A/Q0A/Q0A/Q0A/Q0A/Q0A/Q0A/Q0A/Q0A/Q0A/Q0A/Q0A/Q0A/Q0A/Q0A/Q0A/Q0A/Q0A/Q0A/Q0A/Q0A/Q0A/Q0A/Q0A/Q0A/Q0A/Q0A/Q0A/Q0A/Q0A/Q0A/Q0A/Q0A/Q0A/Q0A/Q0A/Q0A/Q0A/Q0A/Q0A/Q0A/Q0A/////HkodswAAAN90Uk5TAAAEBgUBIoeWkjx7/KmM/t3U2Pe17ksdNdfrMxrSAy9VCAJe50df9bQTELL2aT/o1SYH+/2P7UFJ9LMUKVdaOWL5bMD4+ifhUY7iw1lWmGB+0+k+pGNG83lqhizjpzbmEb9P5TTk6pkykS7cIMLF8LzHCoIrvc04MK9ILR5MGeAXl126PXKI8UN6fQmxsKhtHCOJvkDWydmm2iExDA/K0WHP366lzsxYk63Q8lygC8gfmqrEDcFrimQSTnGhnlAYyyqFgIN2b2Yl295of4FFuaMWO4QoU7jvq+yiOlJ1QtrvB6oAAAABYktHROAoD/8wAAAACXBIWXMAAABIAAAASABGyWs+AAAFK0lEQVRo3u3a+19TZRzA8e+zcUjo4DOYyEUdciK5TRB3BOa8QG0opiUXAxJvkIKiTgGvXERbjJgagVoJKzWTTKVM0NLKsqYSXior0y7ff6UfYIBJuHPx9OrV+fw4Xpw345znOc+eMwA1NTU1NYkRjVZEfoxIzv+JMSIKCBTpPcmimII04rixlNUFCyxEj+P8xHKh48MEFh4hgYucIPR3Jk76dzhD1ORo5TjuKV3M00Q5bkosjYtX7p+ZkIjGqYxyl0pSMk5LIYpx08ea+BnTlRsIgakYk8YoxqWbkc60iOGYWbPnjN5cv4e4jEzE2Gc4EVz8s9bM0dOFP8RNtSHFaVkiuLB5j7oNxM4fgbNFsHy2VgS3AJ9buOife54dgXvByi7Owdw8IobLH+2vXGIbgXuxAAuLjPiSQRluaTEuW74CZ2iU4VauwpCSUsU4w2LeOka5d0deXo1r9FI4xo/4zkF0GUWUwJHytbMY3zmyrkISt34Dv7Gc8ZkDLsMuidvE083LGZ85qKyScu5I9RaWbt3G+czBdklXJvHfwdKcnZzPXI20cUdq821YUadRiANSn5+Ju+ZrFOIAGnZbcd4e7WPmXklzDFSygWLuq47hNZrk5mxOuzcjIlrtwzOirFxDDn1EkUlDnJbjGIZI4AxNrzWP3iLXIJe8d9++/a+3EPGcoIUfIiKatrxBlOEKQiIiVvB8q0EZrs2/tvbAQTwUrww3zg/AFYRvtijIvYVvh6ncKBzRxq8/3OBiHtjHqm/fltLByM8R9/jd71To3g06Uj94dCas6mhy6rH3Slxyc0z18VDa/+ljVdPAOpwcTrQhItLIZheRleMc71M0BsftPeFEXNDZf4joD1i0bzn5oQ1P7eHk5Mj2o8geOj1Rq7HsjLPi6joOAGDWLgzN6OAmtsaaznTJybn38+y+LA4AgKlfa6Uf+QMApOsx0QUA8WWNHzNyciVO3OrdtSCWkzSnHABgoQnPMgDAJEyX9VKJ/oSaZw9ej6Q8aC4HAJBWgAcncPKPu8M6PDdsx8nQ3U839CCddr6Fk5s7cIq/MMIWAlOno6jf/KlF5mE+2ZS5xPtqlsPhcDja/QAANHmJZkRj2+kEWbnTqO/0vlpmt9vt9p7PBqaayZvMiMag9XIO84tW0yXvJ7vPWZaluNV7KhnLnDY9ssfdMnLhqfQL73Luy+bmxmTscQ+dwcuFa9BZR+TjLF9hRcrQD75egcuGL6O1V3j6DScfx33L8o2DgMHD2q4CkI72a9f7X+nU4wWDjLPK0l6MXOjdUWj6DnU1AFxfqfGGBgBAc4WnhTK+O9BcisXia24AgI7OgzTzphaA3LLjsSQGgEurwNAmWW9A7mwrmm/3pSUtmelE0/c/AAB0BPHYe+nHwEIdpfndsnIk4U4qIm8uYBELzl4mAACkeiOPrN3JI3/uJ3lvr0Aqf/4llaWUvds2xT1wbCbqVydF5O/dr2YemlV6awGgPQazRS6NmJW/nW9tvZoXPzRDkoT01vtnbiR1k79NYtoydBatq4m6Y6UeThwnZOFHfr+LxtzcNZlYHE4ePwddN+9RRORLi3x+mieFI5XpjQEBAVWBPu8N/6ceqKnc/4MjDX0ej6eHmgM8ArsTgxGFHs/VaiFPCrk/bCgp/rhLAKeZgXyBXXROFm93C+MijySJ7mKIYK60BkRnOaFyD3DJt8JEFzVJMGeqCBZdhFEYZ7hBpY073NElZFa53jpGUgF/coJmMVHfapLh+01qampqag/2F8kj4HP3lrobAAAAJXRFWHRkYXRlOmNyZWF0ZQAyMDIwLTA5LTI0VDE0OjA3OjU0KzA5OjAwrB/SCwAAACV0RVh0ZGF0ZTptb2RpZnkAMjAyMC0wOS0yNFQxNDowNzo1NCswOTowMN1CarcAAAAZdEVYdFNvZnR3YXJlAEFkb2JlIEltYWdlUmVhZHlxyWU8AAAAAElFTkSuQmCC;" parent="162" vertex="1">
                    <mxGeometry width="54.81319156183707" height="54.81319156183707" as="geometry"/>
                </mxCell>
                <mxCell id="166" value="" style="group" parent="208" vertex="1" connectable="0">
                    <mxGeometry x="543.9188082901555" y="67.46261473726638" width="67.46279792746115" height="54.81337447402892" as="geometry"/>
                </mxCell>
                <mxCell id="167" value="" style="rounded=0;whiteSpace=wrap;html=1;sketch=0;fillColor=#f5f5f5;fontColor=#333333;strokeColor=#666666;" parent="166" vertex="1">
                    <mxGeometry x="59.96693149107657" y="5.138753856940212" width="7.4958664363845715" height="44.535866760148494" as="geometry"/>
                </mxCell>
                <mxCell id="168" value="" style="rounded=0;whiteSpace=wrap;html=1;sketch=0;fillColor=#e51400;strokeColor=#B20000;fontColor=#ffffff;" parent="166" vertex="1">
                    <mxGeometry x="59.974427357512965" y="33.73130736863318" width="7.488370569948187" height="15.938042731679177" as="geometry"/>
                </mxCell>
                <mxCell id="169" value="" style="shape=image;imageAspect=0;aspect=fixed;verticalLabelPosition=bottom;verticalAlign=top;sketch=0;image=data:image/png,iVBORw0KGgoAAAANSUhEUgAAAG4AAABuCAMAAADxhdbJAAAABGdBTUEAALGPC/xhBQAAAAFzUkdCAK7OHOkAAAAgY0hSTQAAeiYAAICEAAD6AAAAgOgAAHUwAADqYAAAOpgAABdwnLpRPAAAAqNQTFRFAAAAQ0A/Q0A/Q0A/Q0A/Q0A/Q0A/Q0A/Q0A/Q0A/Q0A/Q0A/Q0A/Q0A/Q0A/Q0A/Q0A/Q0A/Q0A/Q0A/Q0A/Q0A/Q0A/Q0A/Q0A/Q0A/Q0A/Q0A/Q0A/Q0A/Q0A/Q0A/Q0A/Q0A/Q0A/Q0A/Q0A/Q0A/Q0A/Q0A/Q0A/Q0A/Q0A/Q0A/Q0A/Q0A/Q0A/Q0A/Q0A/Q0A/Q0A/Q0A/Q0A/Q0A/Q0A/Q0A/Q0A/Q0A/Q0A/Q0A/Q0A/Q0A/Q0A/Q0A/Q0A/Q0A/Q0A/Q0A/Q0A/Q0A/Q0A/Q0A/Q0A/Q0A/Q0A/Q0A/Q0A/Q0A/Q0A/Q0A/Q0A/Q0A/Q0A/Q0A/Q0A/Q0A/Q0A/Q0A/Q0A/Q0A/Q0A/Q0A/Q0A/Q0A/Q0A/Q0A/Q0A/Q0A/Q0A/Q0A/Q0A/Q0A/Q0A/Q0A/Q0A/Q0A/Q0A/Q0A/Q0A/Q0A/Q0A/Q0A/Q0A/Q0A/Q0A/Q0A/Q0A/Q0A/Q0A/Q0A/Q0A/Q0A/Q0A/Q0A/Q0A/Q0A/Q0A/Q0A/Q0A/Q0A/Q0A/Q0A/Q0A/Q0A/Q0A/Q0A/Q0A/Q0A/Q0A/Q0A/Q0A/Q0A/Q0A/Q0A/Q0A/Q0A/Q0A/Q0A/Q0A/Q0A/Q0A/Q0A/Q0A/Q0A/Q0A/Q0A/Q0A/Q0A/Q0A/Q0A/Q0A/Q0A/Q0A/Q0A/Q0A/Q0A/Q0A/Q0A/Q0A/Q0A/Q0A/Q0A/Q0A/Q0A/Q0A/Q0A/Q0A/Q0A/Q0A/Q0A/Q0A/Q0A/Q0A/Q0A/Q0A/Q0A/Q0A/Q0A/Q0A/Q0A/Q0A/Q0A/Q0A/Q0A/Q0A/Q0A/Q0A/Q0A/Q0A/Q0A/Q0A/Q0A/Q0A/Q0A/Q0A/Q0A/Q0A/Q0A/Q0A/Q0A/Q0A/Q0A/Q0A/Q0A/Q0A/Q0A/Q0A/Q0A/Q0A/Q0A/Q0A/Q0A/Q0A/Q0A/////HkodswAAAN90Uk5TAAAEBgUBIoeWkjx7/KmM/t3U2Pe17ksdNdfrMxrSAy9VCAJe50df9bQTELL2aT/o1SYH+/2P7UFJ9LMUKVdaOWL5bMD4+ifhUY7iw1lWmGB+0+k+pGNG83lqhizjpzbmEb9P5TTk6pkykS7cIMLF8LzHCoIrvc04MK9ILR5MGeAXl126PXKI8UN6fQmxsKhtHCOJvkDWydmm2iExDA/K0WHP366lzsxYk63Q8lygC8gfmqrEDcFrimQSTnGhnlAYyyqFgIN2b2Yl295of4FFuaMWO4QoU7jvq+yiOlJ1QtrvB6oAAAABYktHROAoD/8wAAAACXBIWXMAAABIAAAASABGyWs+AAAFK0lEQVRo3u3a+19TZRzA8e+zcUjo4DOYyEUdciK5TRB3BOa8QG0opiUXAxJvkIKiTgGvXERbjJgagVoJKzWTTKVM0NLKsqYSXior0y7ff6UfYIBJuHPx9OrV+fw4Xpw345znOc+eMwA1NTU1NYkRjVZEfoxIzv+JMSIKCBTpPcmimII04rixlNUFCyxEj+P8xHKh48MEFh4hgYucIPR3Jk76dzhD1ORo5TjuKV3M00Q5bkosjYtX7p+ZkIjGqYxyl0pSMk5LIYpx08ea+BnTlRsIgakYk8YoxqWbkc60iOGYWbPnjN5cv4e4jEzE2Gc4EVz8s9bM0dOFP8RNtSHFaVkiuLB5j7oNxM4fgbNFsHy2VgS3AJ9buOife54dgXvByi7Owdw8IobLH+2vXGIbgXuxAAuLjPiSQRluaTEuW74CZ2iU4VauwpCSUsU4w2LeOka5d0deXo1r9FI4xo/4zkF0GUWUwJHytbMY3zmyrkISt34Dv7Gc8ZkDLsMuidvE083LGZ85qKyScu5I9RaWbt3G+czBdklXJvHfwdKcnZzPXI20cUdq821YUadRiANSn5+Ju+ZrFOIAGnZbcd4e7WPmXklzDFSygWLuq47hNZrk5mxOuzcjIlrtwzOirFxDDn1EkUlDnJbjGIZI4AxNrzWP3iLXIJe8d9++/a+3EPGcoIUfIiKatrxBlOEKQiIiVvB8q0EZrs2/tvbAQTwUrww3zg/AFYRvtijIvYVvh6ncKBzRxq8/3OBiHtjHqm/fltLByM8R9/jd71To3g06Uj94dCas6mhy6rH3Slxyc0z18VDa/+ljVdPAOpwcTrQhItLIZheRleMc71M0BsftPeFEXNDZf4joD1i0bzn5oQ1P7eHk5Mj2o8geOj1Rq7HsjLPi6joOAGDWLgzN6OAmtsaaznTJybn38+y+LA4AgKlfa6Uf+QMApOsx0QUA8WWNHzNyciVO3OrdtSCWkzSnHABgoQnPMgDAJEyX9VKJ/oSaZw9ej6Q8aC4HAJBWgAcncPKPu8M6PDdsx8nQ3U839CCddr6Fk5s7cIq/MMIWAlOno6jf/KlF5mE+2ZS5xPtqlsPhcDja/QAANHmJZkRj2+kEWbnTqO/0vlpmt9vt9p7PBqaayZvMiMag9XIO84tW0yXvJ7vPWZaluNV7KhnLnDY9ssfdMnLhqfQL73Luy+bmxmTscQ+dwcuFa9BZR+TjLF9hRcrQD75egcuGL6O1V3j6DScfx33L8o2DgMHD2q4CkI72a9f7X+nU4wWDjLPK0l6MXOjdUWj6DnU1AFxfqfGGBgBAc4WnhTK+O9BcisXia24AgI7OgzTzphaA3LLjsSQGgEurwNAmWW9A7mwrmm/3pSUtmelE0/c/AAB0BPHYe+nHwEIdpfndsnIk4U4qIm8uYBELzl4mAACkeiOPrN3JI3/uJ3lvr0Aqf/4llaWUvds2xT1wbCbqVydF5O/dr2YemlV6awGgPQazRS6NmJW/nW9tvZoXPzRDkoT01vtnbiR1k79NYtoydBatq4m6Y6UeThwnZOFHfr+LxtzcNZlYHE4ePwddN+9RRORLi3x+mieFI5XpjQEBAVWBPu8N/6ceqKnc/4MjDX0ej6eHmgM8ArsTgxGFHs/VaiFPCrk/bCgp/rhLAKeZgXyBXXROFm93C+MijySJ7mKIYK60BkRnOaFyD3DJt8JEFzVJMGeqCBZdhFEYZ7hBpY073NElZFa53jpGUgF/coJmMVHfapLh+01qampqag/2F8kj4HP3lrobAAAAJXRFWHRkYXRlOmNyZWF0ZQAyMDIwLTA5LTI0VDE0OjA3OjU0KzA5OjAwrB/SCwAAACV0RVh0ZGF0ZTptb2RpZnkAMjAyMC0wOS0yNFQxNDowNzo1NCswOTowMN1CarcAAAAZdEVYdFNvZnR3YXJlAEFkb2JlIEltYWdlUmVhZHlxyWU8AAAAAElFTkSuQmCC;" parent="166" vertex="1">
                    <mxGeometry width="54.81319156183707" height="54.81319156183707" as="geometry"/>
                </mxCell>
                <mxCell id="170" value="" style="group" parent="208" vertex="1" connectable="0">
                    <mxGeometry x="563.0048080788731" y="339.99872737064834" width="67.46279792746115" height="54.81337447402892" as="geometry"/>
                </mxCell>
                <mxCell id="171" value="" style="rounded=0;whiteSpace=wrap;html=1;sketch=0;fillColor=#f5f5f5;fontColor=#333333;strokeColor=#666666;" parent="170" vertex="1">
                    <mxGeometry x="59.96693149107657" y="5.138753856940212" width="7.4958664363845715" height="44.535866760148494" as="geometry"/>
                </mxCell>
                <mxCell id="172" value="" style="rounded=0;whiteSpace=wrap;html=1;sketch=0;fillColor=#60a917;strokeColor=#2D7600;fontColor=#ffffff;" parent="170" vertex="1">
                    <mxGeometry x="59.96693149107657" y="11.990425666193827" width="7.4958664363845715" height="37.68419495089488" as="geometry"/>
                </mxCell>
                <mxCell id="173" value="" style="shape=image;imageAspect=0;aspect=fixed;verticalLabelPosition=bottom;verticalAlign=top;sketch=0;image=data:image/png,iVBORw0KGgoAAAANSUhEUgAAAG4AAABuCAMAAADxhdbJAAAABGdBTUEAALGPC/xhBQAAAAFzUkdCAK7OHOkAAAAgY0hSTQAAeiYAAICEAAD6AAAAgOgAAHUwAADqYAAAOpgAABdwnLpRPAAAAqNQTFRFAAAAQ0A/Q0A/Q0A/Q0A/Q0A/Q0A/Q0A/Q0A/Q0A/Q0A/Q0A/Q0A/Q0A/Q0A/Q0A/Q0A/Q0A/Q0A/Q0A/Q0A/Q0A/Q0A/Q0A/Q0A/Q0A/Q0A/Q0A/Q0A/Q0A/Q0A/Q0A/Q0A/Q0A/Q0A/Q0A/Q0A/Q0A/Q0A/Q0A/Q0A/Q0A/Q0A/Q0A/Q0A/Q0A/Q0A/Q0A/Q0A/Q0A/Q0A/Q0A/Q0A/Q0A/Q0A/Q0A/Q0A/Q0A/Q0A/Q0A/Q0A/Q0A/Q0A/Q0A/Q0A/Q0A/Q0A/Q0A/Q0A/Q0A/Q0A/Q0A/Q0A/Q0A/Q0A/Q0A/Q0A/Q0A/Q0A/Q0A/Q0A/Q0A/Q0A/Q0A/Q0A/Q0A/Q0A/Q0A/Q0A/Q0A/Q0A/Q0A/Q0A/Q0A/Q0A/Q0A/Q0A/Q0A/Q0A/Q0A/Q0A/Q0A/Q0A/Q0A/Q0A/Q0A/Q0A/Q0A/Q0A/Q0A/Q0A/Q0A/Q0A/Q0A/Q0A/Q0A/Q0A/Q0A/Q0A/Q0A/Q0A/Q0A/Q0A/Q0A/Q0A/Q0A/Q0A/Q0A/Q0A/Q0A/Q0A/Q0A/Q0A/Q0A/Q0A/Q0A/Q0A/Q0A/Q0A/Q0A/Q0A/Q0A/Q0A/Q0A/Q0A/Q0A/Q0A/Q0A/Q0A/Q0A/Q0A/Q0A/Q0A/Q0A/Q0A/Q0A/Q0A/Q0A/Q0A/Q0A/Q0A/Q0A/Q0A/Q0A/Q0A/Q0A/Q0A/Q0A/Q0A/Q0A/Q0A/Q0A/Q0A/Q0A/Q0A/Q0A/Q0A/Q0A/Q0A/Q0A/Q0A/Q0A/Q0A/Q0A/Q0A/Q0A/Q0A/Q0A/Q0A/Q0A/Q0A/Q0A/Q0A/Q0A/Q0A/Q0A/Q0A/Q0A/Q0A/Q0A/Q0A/Q0A/Q0A/Q0A/Q0A/Q0A/Q0A/Q0A/Q0A/Q0A/Q0A/Q0A/Q0A/Q0A/Q0A/Q0A/Q0A/Q0A/Q0A/Q0A/Q0A/Q0A/Q0A/Q0A/////HkodswAAAN90Uk5TAAAEBgUBIoeWkjx7/KmM/t3U2Pe17ksdNdfrMxrSAy9VCAJe50df9bQTELL2aT/o1SYH+/2P7UFJ9LMUKVdaOWL5bMD4+ifhUY7iw1lWmGB+0+k+pGNG83lqhizjpzbmEb9P5TTk6pkykS7cIMLF8LzHCoIrvc04MK9ILR5MGeAXl126PXKI8UN6fQmxsKhtHCOJvkDWydmm2iExDA/K0WHP366lzsxYk63Q8lygC8gfmqrEDcFrimQSTnGhnlAYyyqFgIN2b2Yl295of4FFuaMWO4QoU7jvq+yiOlJ1QtrvB6oAAAABYktHROAoD/8wAAAACXBIWXMAAABIAAAASABGyWs+AAAFK0lEQVRo3u3a+19TZRzA8e+zcUjo4DOYyEUdciK5TRB3BOa8QG0opiUXAxJvkIKiTgGvXERbjJgagVoJKzWTTKVM0NLKsqYSXior0y7ff6UfYIBJuHPx9OrV+fw4Xpw345znOc+eMwA1NTU1NYkRjVZEfoxIzv+JMSIKCBTpPcmimII04rixlNUFCyxEj+P8xHKh48MEFh4hgYucIPR3Jk76dzhD1ORo5TjuKV3M00Q5bkosjYtX7p+ZkIjGqYxyl0pSMk5LIYpx08ea+BnTlRsIgakYk8YoxqWbkc60iOGYWbPnjN5cv4e4jEzE2Gc4EVz8s9bM0dOFP8RNtSHFaVkiuLB5j7oNxM4fgbNFsHy2VgS3AJ9buOife54dgXvByi7Owdw8IobLH+2vXGIbgXuxAAuLjPiSQRluaTEuW74CZ2iU4VauwpCSUsU4w2LeOka5d0deXo1r9FI4xo/4zkF0GUWUwJHytbMY3zmyrkISt34Dv7Gc8ZkDLsMuidvE083LGZ85qKyScu5I9RaWbt3G+czBdklXJvHfwdKcnZzPXI20cUdq821YUadRiANSn5+Ju+ZrFOIAGnZbcd4e7WPmXklzDFSygWLuq47hNZrk5mxOuzcjIlrtwzOirFxDDn1EkUlDnJbjGIZI4AxNrzWP3iLXIJe8d9++/a+3EPGcoIUfIiKatrxBlOEKQiIiVvB8q0EZrs2/tvbAQTwUrww3zg/AFYRvtijIvYVvh6ncKBzRxq8/3OBiHtjHqm/fltLByM8R9/jd71To3g06Uj94dCas6mhy6rH3Slxyc0z18VDa/+ljVdPAOpwcTrQhItLIZheRleMc71M0BsftPeFEXNDZf4joD1i0bzn5oQ1P7eHk5Mj2o8geOj1Rq7HsjLPi6joOAGDWLgzN6OAmtsaaznTJybn38+y+LA4AgKlfa6Uf+QMApOsx0QUA8WWNHzNyciVO3OrdtSCWkzSnHABgoQnPMgDAJEyX9VKJ/oSaZw9ej6Q8aC4HAJBWgAcncPKPu8M6PDdsx8nQ3U839CCddr6Fk5s7cIq/MMIWAlOno6jf/KlF5mE+2ZS5xPtqlsPhcDja/QAANHmJZkRj2+kEWbnTqO/0vlpmt9vt9p7PBqaayZvMiMag9XIO84tW0yXvJ7vPWZaluNV7KhnLnDY9ssfdMnLhqfQL73Luy+bmxmTscQ+dwcuFa9BZR+TjLF9hRcrQD75egcuGL6O1V3j6DScfx33L8o2DgMHD2q4CkI72a9f7X+nU4wWDjLPK0l6MXOjdUWj6DnU1AFxfqfGGBgBAc4WnhTK+O9BcisXia24AgI7OgzTzphaA3LLjsSQGgEurwNAmWW9A7mwrmm/3pSUtmelE0/c/AAB0BPHYe+nHwEIdpfndsnIk4U4qIm8uYBELzl4mAACkeiOPrN3JI3/uJ3lvr0Aqf/4llaWUvds2xT1wbCbqVydF5O/dr2YemlV6awGgPQazRS6NmJW/nW9tvZoXPzRDkoT01vtnbiR1k79NYtoydBatq4m6Y6UeThwnZOFHfr+LxtzcNZlYHE4ePwddN+9RRORLi3x+mieFI5XpjQEBAVWBPu8N/6ceqKnc/4MjDX0ej6eHmgM8ArsTgxGFHs/VaiFPCrk/bCgp/rhLAKeZgXyBXXROFm93C+MijySJ7mKIYK60BkRnOaFyD3DJt8JEFzVJMGeqCBZdhFEYZ7hBpY073NElZFa53jpGUgF/coJmMVHfapLh+01qampqag/2F8kj4HP3lrobAAAAJXRFWHRkYXRlOmNyZWF0ZQAyMDIwLTA5LTI0VDE0OjA3OjU0KzA5OjAwrB/SCwAAACV0RVh0ZGF0ZTptb2RpZnkAMjAyMC0wOS0yNFQxNDowNzo1NCswOTowMN1CarcAAAAZdEVYdFNvZnR3YXJlAEFkb2JlIEltYWdlUmVhZHlxyWU8AAAAAElFTkSuQmCC;" parent="170" vertex="1">
                    <mxGeometry width="54.81319156183707" height="54.81319156183707" as="geometry"/>
                </mxCell>
                <mxCell id="174" value="" style="group" parent="208" vertex="1" connectable="0">
                    <mxGeometry x="392.12562292469687" y="345.74464700017575" width="67.46279792746115" height="54.81337447402892" as="geometry"/>
                </mxCell>
                <mxCell id="175" value="" style="rounded=0;whiteSpace=wrap;html=1;sketch=0;fillColor=#f5f5f5;fontColor=#333333;strokeColor=#666666;" parent="174" vertex="1">
                    <mxGeometry x="59.96693149107657" y="5.138753856940212" width="7.4958664363845715" height="44.535866760148494" as="geometry"/>
                </mxCell>
                <mxCell id="176" value="" style="rounded=0;whiteSpace=wrap;html=1;sketch=0;fillColor=#60a917;strokeColor=#2D7600;fontColor=#ffffff;" parent="174" vertex="1">
                    <mxGeometry x="59.96693149107657" y="11.990425666193827" width="7.4958664363845715" height="37.68419495089488" as="geometry"/>
                </mxCell>
                <mxCell id="177" value="" style="shape=image;imageAspect=0;aspect=fixed;verticalLabelPosition=bottom;verticalAlign=top;sketch=0;image=data:image/png,iVBORw0KGgoAAAANSUhEUgAAAG4AAABuCAMAAADxhdbJAAAABGdBTUEAALGPC/xhBQAAAAFzUkdCAK7OHOkAAAAgY0hSTQAAeiYAAICEAAD6AAAAgOgAAHUwAADqYAAAOpgAABdwnLpRPAAAAqNQTFRFAAAAQ0A/Q0A/Q0A/Q0A/Q0A/Q0A/Q0A/Q0A/Q0A/Q0A/Q0A/Q0A/Q0A/Q0A/Q0A/Q0A/Q0A/Q0A/Q0A/Q0A/Q0A/Q0A/Q0A/Q0A/Q0A/Q0A/Q0A/Q0A/Q0A/Q0A/Q0A/Q0A/Q0A/Q0A/Q0A/Q0A/Q0A/Q0A/Q0A/Q0A/Q0A/Q0A/Q0A/Q0A/Q0A/Q0A/Q0A/Q0A/Q0A/Q0A/Q0A/Q0A/Q0A/Q0A/Q0A/Q0A/Q0A/Q0A/Q0A/Q0A/Q0A/Q0A/Q0A/Q0A/Q0A/Q0A/Q0A/Q0A/Q0A/Q0A/Q0A/Q0A/Q0A/Q0A/Q0A/Q0A/Q0A/Q0A/Q0A/Q0A/Q0A/Q0A/Q0A/Q0A/Q0A/Q0A/Q0A/Q0A/Q0A/Q0A/Q0A/Q0A/Q0A/Q0A/Q0A/Q0A/Q0A/Q0A/Q0A/Q0A/Q0A/Q0A/Q0A/Q0A/Q0A/Q0A/Q0A/Q0A/Q0A/Q0A/Q0A/Q0A/Q0A/Q0A/Q0A/Q0A/Q0A/Q0A/Q0A/Q0A/Q0A/Q0A/Q0A/Q0A/Q0A/Q0A/Q0A/Q0A/Q0A/Q0A/Q0A/Q0A/Q0A/Q0A/Q0A/Q0A/Q0A/Q0A/Q0A/Q0A/Q0A/Q0A/Q0A/Q0A/Q0A/Q0A/Q0A/Q0A/Q0A/Q0A/Q0A/Q0A/Q0A/Q0A/Q0A/Q0A/Q0A/Q0A/Q0A/Q0A/Q0A/Q0A/Q0A/Q0A/Q0A/Q0A/Q0A/Q0A/Q0A/Q0A/Q0A/Q0A/Q0A/Q0A/Q0A/Q0A/Q0A/Q0A/Q0A/Q0A/Q0A/Q0A/Q0A/Q0A/Q0A/Q0A/Q0A/Q0A/Q0A/Q0A/Q0A/Q0A/Q0A/Q0A/Q0A/Q0A/Q0A/Q0A/Q0A/Q0A/Q0A/Q0A/Q0A/Q0A/Q0A/Q0A/Q0A/Q0A/Q0A/Q0A/Q0A/Q0A/Q0A/Q0A/Q0A/Q0A/Q0A/Q0A/Q0A/Q0A/Q0A/Q0A/Q0A/////HkodswAAAN90Uk5TAAAEBgUBIoeWkjx7/KmM/t3U2Pe17ksdNdfrMxrSAy9VCAJe50df9bQTELL2aT/o1SYH+/2P7UFJ9LMUKVdaOWL5bMD4+ifhUY7iw1lWmGB+0+k+pGNG83lqhizjpzbmEb9P5TTk6pkykS7cIMLF8LzHCoIrvc04MK9ILR5MGeAXl126PXKI8UN6fQmxsKhtHCOJvkDWydmm2iExDA/K0WHP366lzsxYk63Q8lygC8gfmqrEDcFrimQSTnGhnlAYyyqFgIN2b2Yl295of4FFuaMWO4QoU7jvq+yiOlJ1QtrvB6oAAAABYktHROAoD/8wAAAACXBIWXMAAABIAAAASABGyWs+AAAFK0lEQVRo3u3a+19TZRzA8e+zcUjo4DOYyEUdciK5TRB3BOa8QG0opiUXAxJvkIKiTgGvXERbjJgagVoJKzWTTKVM0NLKsqYSXior0y7ff6UfYIBJuHPx9OrV+fw4Xpw345znOc+eMwA1NTU1NYkRjVZEfoxIzv+JMSIKCBTpPcmimII04rixlNUFCyxEj+P8xHKh48MEFh4hgYucIPR3Jk76dzhD1ORo5TjuKV3M00Q5bkosjYtX7p+ZkIjGqYxyl0pSMk5LIYpx08ea+BnTlRsIgakYk8YoxqWbkc60iOGYWbPnjN5cv4e4jEzE2Gc4EVz8s9bM0dOFP8RNtSHFaVkiuLB5j7oNxM4fgbNFsHy2VgS3AJ9buOife54dgXvByi7Owdw8IobLH+2vXGIbgXuxAAuLjPiSQRluaTEuW74CZ2iU4VauwpCSUsU4w2LeOka5d0deXo1r9FI4xo/4zkF0GUWUwJHytbMY3zmyrkISt34Dv7Gc8ZkDLsMuidvE083LGZ85qKyScu5I9RaWbt3G+czBdklXJvHfwdKcnZzPXI20cUdq821YUadRiANSn5+Ju+ZrFOIAGnZbcd4e7WPmXklzDFSygWLuq47hNZrk5mxOuzcjIlrtwzOirFxDDn1EkUlDnJbjGIZI4AxNrzWP3iLXIJe8d9++/a+3EPGcoIUfIiKatrxBlOEKQiIiVvB8q0EZrs2/tvbAQTwUrww3zg/AFYRvtijIvYVvh6ncKBzRxq8/3OBiHtjHqm/fltLByM8R9/jd71To3g06Uj94dCas6mhy6rH3Slxyc0z18VDa/+ljVdPAOpwcTrQhItLIZheRleMc71M0BsftPeFEXNDZf4joD1i0bzn5oQ1P7eHk5Mj2o8geOj1Rq7HsjLPi6joOAGDWLgzN6OAmtsaaznTJybn38+y+LA4AgKlfa6Uf+QMApOsx0QUA8WWNHzNyciVO3OrdtSCWkzSnHABgoQnPMgDAJEyX9VKJ/oSaZw9ej6Q8aC4HAJBWgAcncPKPu8M6PDdsx8nQ3U839CCddr6Fk5s7cIq/MMIWAlOno6jf/KlF5mE+2ZS5xPtqlsPhcDja/QAANHmJZkRj2+kEWbnTqO/0vlpmt9vt9p7PBqaayZvMiMag9XIO84tW0yXvJ7vPWZaluNV7KhnLnDY9ssfdMnLhqfQL73Luy+bmxmTscQ+dwcuFa9BZR+TjLF9hRcrQD75egcuGL6O1V3j6DScfx33L8o2DgMHD2q4CkI72a9f7X+nU4wWDjLPK0l6MXOjdUWj6DnU1AFxfqfGGBgBAc4WnhTK+O9BcisXia24AgI7OgzTzphaA3LLjsSQGgEurwNAmWW9A7mwrmm/3pSUtmelE0/c/AAB0BPHYe+nHwEIdpfndsnIk4U4qIm8uYBELzl4mAACkeiOPrN3JI3/uJ3lvr0Aqf/4llaWUvds2xT1wbCbqVydF5O/dr2YemlV6awGgPQazRS6NmJW/nW9tvZoXPzRDkoT01vtnbiR1k79NYtoydBatq4m6Y6UeThwnZOFHfr+LxtzcNZlYHE4ePwddN+9RRORLi3x+mieFI5XpjQEBAVWBPu8N/6ceqKnc/4MjDX0ej6eHmgM8ArsTgxGFHs/VaiFPCrk/bCgp/rhLAKeZgXyBXXROFm93C+MijySJ7mKIYK60BkRnOaFyD3DJt8JEFzVJMGeqCBZdhFEYZ7hBpY073NElZFa53jpGUgF/coJmMVHfapLh+01qampqag/2F8kj4HP3lrobAAAAJXRFWHRkYXRlOmNyZWF0ZQAyMDIwLTA5LTI0VDE0OjA3OjU0KzA5OjAwrB/SCwAAACV0RVh0ZGF0ZTptb2RpZnkAMjAyMC0wOS0yNFQxNDowNzo1NCswOTowMN1CarcAAAAZdEVYdFNvZnR3YXJlAEFkb2JlIEltYWdlUmVhZHlxyWU8AAAAAElFTkSuQmCC;" parent="174" vertex="1">
                    <mxGeometry width="54.81319156183707" height="54.81319156183707" as="geometry"/>
                </mxCell>
                <mxCell id="178" value="" style="group" parent="208" vertex="1" connectable="0">
                    <mxGeometry x="663.0044041450778" y="286.716112633382" width="67.46279792746115" height="54.81337447402892" as="geometry"/>
                </mxCell>
                <mxCell id="179" value="" style="rounded=0;whiteSpace=wrap;html=1;sketch=0;fillColor=#f5f5f5;fontColor=#333333;strokeColor=#666666;" parent="178" vertex="1">
                    <mxGeometry x="59.96693149107657" y="5.138753856940212" width="7.4958664363845715" height="44.535866760148494" as="geometry"/>
                </mxCell>
                <mxCell id="180" value="" style="rounded=0;whiteSpace=wrap;html=1;sketch=0;fillColor=#fa6800;strokeColor=#C73500;fontColor=#000000;" parent="178" vertex="1">
                    <mxGeometry x="59.974427357512965" y="33.73130736863318" width="7.488370569948187" height="15.938042731679177" as="geometry"/>
                </mxCell>
                <mxCell id="181" value="" style="shape=image;imageAspect=0;aspect=fixed;verticalLabelPosition=bottom;verticalAlign=top;sketch=0;image=data:image/png,iVBORw0KGgoAAAANSUhEUgAAAG4AAABuCAMAAADxhdbJAAAABGdBTUEAALGPC/xhBQAAAAFzUkdCAK7OHOkAAAAgY0hSTQAAeiYAAICEAAD6AAAAgOgAAHUwAADqYAAAOpgAABdwnLpRPAAAAqNQTFRFAAAAQ0A/Q0A/Q0A/Q0A/Q0A/Q0A/Q0A/Q0A/Q0A/Q0A/Q0A/Q0A/Q0A/Q0A/Q0A/Q0A/Q0A/Q0A/Q0A/Q0A/Q0A/Q0A/Q0A/Q0A/Q0A/Q0A/Q0A/Q0A/Q0A/Q0A/Q0A/Q0A/Q0A/Q0A/Q0A/Q0A/Q0A/Q0A/Q0A/Q0A/Q0A/Q0A/Q0A/Q0A/Q0A/Q0A/Q0A/Q0A/Q0A/Q0A/Q0A/Q0A/Q0A/Q0A/Q0A/Q0A/Q0A/Q0A/Q0A/Q0A/Q0A/Q0A/Q0A/Q0A/Q0A/Q0A/Q0A/Q0A/Q0A/Q0A/Q0A/Q0A/Q0A/Q0A/Q0A/Q0A/Q0A/Q0A/Q0A/Q0A/Q0A/Q0A/Q0A/Q0A/Q0A/Q0A/Q0A/Q0A/Q0A/Q0A/Q0A/Q0A/Q0A/Q0A/Q0A/Q0A/Q0A/Q0A/Q0A/Q0A/Q0A/Q0A/Q0A/Q0A/Q0A/Q0A/Q0A/Q0A/Q0A/Q0A/Q0A/Q0A/Q0A/Q0A/Q0A/Q0A/Q0A/Q0A/Q0A/Q0A/Q0A/Q0A/Q0A/Q0A/Q0A/Q0A/Q0A/Q0A/Q0A/Q0A/Q0A/Q0A/Q0A/Q0A/Q0A/Q0A/Q0A/Q0A/Q0A/Q0A/Q0A/Q0A/Q0A/Q0A/Q0A/Q0A/Q0A/Q0A/Q0A/Q0A/Q0A/Q0A/Q0A/Q0A/Q0A/Q0A/Q0A/Q0A/Q0A/Q0A/Q0A/Q0A/Q0A/Q0A/Q0A/Q0A/Q0A/Q0A/Q0A/Q0A/Q0A/Q0A/Q0A/Q0A/Q0A/Q0A/Q0A/Q0A/Q0A/Q0A/Q0A/Q0A/Q0A/Q0A/Q0A/Q0A/Q0A/Q0A/Q0A/Q0A/Q0A/Q0A/Q0A/Q0A/Q0A/Q0A/Q0A/Q0A/Q0A/Q0A/Q0A/Q0A/Q0A/Q0A/Q0A/Q0A/Q0A/Q0A/Q0A/Q0A/Q0A/Q0A/Q0A/Q0A/Q0A/Q0A/Q0A/Q0A/Q0A/Q0A/Q0A/Q0A/Q0A/////HkodswAAAN90Uk5TAAAEBgUBIoeWkjx7/KmM/t3U2Pe17ksdNdfrMxrSAy9VCAJe50df9bQTELL2aT/o1SYH+/2P7UFJ9LMUKVdaOWL5bMD4+ifhUY7iw1lWmGB+0+k+pGNG83lqhizjpzbmEb9P5TTk6pkykS7cIMLF8LzHCoIrvc04MK9ILR5MGeAXl126PXKI8UN6fQmxsKhtHCOJvkDWydmm2iExDA/K0WHP366lzsxYk63Q8lygC8gfmqrEDcFrimQSTnGhnlAYyyqFgIN2b2Yl295of4FFuaMWO4QoU7jvq+yiOlJ1QtrvB6oAAAABYktHROAoD/8wAAAACXBIWXMAAABIAAAASABGyWs+AAAFK0lEQVRo3u3a+19TZRzA8e+zcUjo4DOYyEUdciK5TRB3BOa8QG0opiUXAxJvkIKiTgGvXERbjJgagVoJKzWTTKVM0NLKsqYSXior0y7ff6UfYIBJuHPx9OrV+fw4Xpw345znOc+eMwA1NTU1NYkRjVZEfoxIzv+JMSIKCBTpPcmimII04rixlNUFCyxEj+P8xHKh48MEFh4hgYucIPR3Jk76dzhD1ORo5TjuKV3M00Q5bkosjYtX7p+ZkIjGqYxyl0pSMk5LIYpx08ea+BnTlRsIgakYk8YoxqWbkc60iOGYWbPnjN5cv4e4jEzE2Gc4EVz8s9bM0dOFP8RNtSHFaVkiuLB5j7oNxM4fgbNFsHy2VgS3AJ9buOife54dgXvByi7Owdw8IobLH+2vXGIbgXuxAAuLjPiSQRluaTEuW74CZ2iU4VauwpCSUsU4w2LeOka5d0deXo1r9FI4xo/4zkF0GUWUwJHytbMY3zmyrkISt34Dv7Gc8ZkDLsMuidvE083LGZ85qKyScu5I9RaWbt3G+czBdklXJvHfwdKcnZzPXI20cUdq821YUadRiANSn5+Ju+ZrFOIAGnZbcd4e7WPmXklzDFSygWLuq47hNZrk5mxOuzcjIlrtwzOirFxDDn1EkUlDnJbjGIZI4AxNrzWP3iLXIJe8d9++/a+3EPGcoIUfIiKatrxBlOEKQiIiVvB8q0EZrs2/tvbAQTwUrww3zg/AFYRvtijIvYVvh6ncKBzRxq8/3OBiHtjHqm/fltLByM8R9/jd71To3g06Uj94dCas6mhy6rH3Slxyc0z18VDa/+ljVdPAOpwcTrQhItLIZheRleMc71M0BsftPeFEXNDZf4joD1i0bzn5oQ1P7eHk5Mj2o8geOj1Rq7HsjLPi6joOAGDWLgzN6OAmtsaaznTJybn38+y+LA4AgKlfa6Uf+QMApOsx0QUA8WWNHzNyciVO3OrdtSCWkzSnHABgoQnPMgDAJEyX9VKJ/oSaZw9ej6Q8aC4HAJBWgAcncPKPu8M6PDdsx8nQ3U839CCddr6Fk5s7cIq/MMIWAlOno6jf/KlF5mE+2ZS5xPtqlsPhcDja/QAANHmJZkRj2+kEWbnTqO/0vlpmt9vt9p7PBqaayZvMiMag9XIO84tW0yXvJ7vPWZaluNV7KhnLnDY9ssfdMnLhqfQL73Luy+bmxmTscQ+dwcuFa9BZR+TjLF9hRcrQD75egcuGL6O1V3j6DScfx33L8o2DgMHD2q4CkI72a9f7X+nU4wWDjLPK0l6MXOjdUWj6DnU1AFxfqfGGBgBAc4WnhTK+O9BcisXia24AgI7OgzTzphaA3LLjsSQGgEurwNAmWW9A7mwrmm/3pSUtmelE0/c/AAB0BPHYe+nHwEIdpfndsnIk4U4qIm8uYBELzl4mAACkeiOPrN3JI3/uJ3lvr0Aqf/4llaWUvds2xT1wbCbqVydF5O/dr2YemlV6awGgPQazRS6NmJW/nW9tvZoXPzRDkoT01vtnbiR1k79NYtoydBatq4m6Y6UeThwnZOFHfr+LxtzcNZlYHE4ePwddN+9RRORLi3x+mieFI5XpjQEBAVWBPu8N/6ceqKnc/4MjDX0ej6eHmgM8ArsTgxGFHs/VaiFPCrk/bCgp/rhLAKeZgXyBXXROFm93C+MijySJ7mKIYK60BkRnOaFyD3DJt8JEFzVJMGeqCBZdhFEYZ7hBpY073NElZFa53jpGUgF/coJmMVHfapLh+01qampqag/2F8kj4HP3lrobAAAAJXRFWHRkYXRlOmNyZWF0ZQAyMDIwLTA5LTI0VDE0OjA3OjU0KzA5OjAwrB/SCwAAACV0RVh0ZGF0ZTptb2RpZnkAMjAyMC0wOS0yNFQxNDowNzo1NCswOTowMN1CarcAAAAZdEVYdFNvZnR3YXJlAEFkb2JlIEltYWdlUmVhZHlxyWU8AAAAAElFTkSuQmCC;" parent="178" vertex="1">
                    <mxGeometry width="54.81319156183707" height="54.81319156183707" as="geometry"/>
                </mxCell>
                <mxCell id="193" value="" style="edgeStyle=none;orthogonalLoop=1;jettySize=auto;html=1;rounded=0;endArrow=classicThin;startSize=14;endSize=14;sourcePerimeterSpacing=8;targetPerimeterSpacing=8;curved=1;dashed=1;strokeWidth=3;strokeColor=#368DFF;endFill=1;" edge="1" parent="208">
                    <mxGeometry width="140" relative="1" as="geometry">
                        <mxPoint x="119.31476086336406" y="185.52766046921795" as="sourcePoint"/>
                        <mxPoint x="281.87200315136033" y="176.86144944634694" as="targetPoint"/>
                        <Array as="points"/>
                    </mxGeometry>
                </mxCell>
                <mxCell id="195" value="" style="edgeStyle=none;orthogonalLoop=1;jettySize=auto;html=1;rounded=0;endArrow=classicThin;startSize=14;endSize=14;sourcePerimeterSpacing=8;targetPerimeterSpacing=8;curved=1;dashed=1;strokeWidth=3;strokeColor=#368DFF;endFill=1;" edge="1" parent="208">
                    <mxGeometry width="140" relative="1" as="geometry">
                        <mxPoint x="291.842534400087" y="172.87101299321367" as="sourcePoint"/>
                        <mxPoint x="525.0556921446909" y="99.48456531357016" as="targetPoint"/>
                        <Array as="points"/>
                    </mxGeometry>
                </mxCell>
                <mxCell id="196" value="" style="edgeStyle=none;orthogonalLoop=1;jettySize=auto;html=1;rounded=0;endArrow=classicThin;startSize=14;endSize=14;sourcePerimeterSpacing=8;targetPerimeterSpacing=8;curved=1;dashed=1;strokeWidth=3;strokeColor=#368DFF;endFill=1;" edge="1" parent="208">
                    <mxGeometry width="140" relative="1" as="geometry">
                        <mxPoint x="624.5399285510534" y="110.53840590396686" as="sourcePoint"/>
                        <mxPoint x="712.9703609122645" y="132.6460870847602" as="targetPoint"/>
                        <Array as="points"/>
                    </mxGeometry>
                </mxCell>
                <mxCell id="197" value="" style="edgeStyle=none;orthogonalLoop=1;jettySize=auto;html=1;rounded=0;endArrow=classicThin;startSize=14;endSize=14;sourcePerimeterSpacing=8;targetPerimeterSpacing=8;curved=1;dashed=1;strokeWidth=3;strokeColor=#368DFF;endFill=1;" edge="1" parent="208">
                    <mxGeometry width="140" relative="1" as="geometry">
                        <mxPoint x="746.1317730477186" y="176.86144944634694" as="sourcePoint"/>
                        <mxPoint x="679.8089487768102" y="276.3460147599171" as="targetPoint"/>
                        <Array as="points"/>
                    </mxGeometry>
                </mxCell>
                <mxCell id="198" value="" style="edgeStyle=none;orthogonalLoop=1;jettySize=auto;html=1;rounded=0;endArrow=classicThin;startSize=14;endSize=14;sourcePerimeterSpacing=8;targetPerimeterSpacing=8;curved=1;dashed=1;strokeWidth=3;strokeColor=#368DFF;endFill=1;" edge="1" parent="208">
                    <mxGeometry width="140" relative="1" as="geometry">
                        <mxPoint x="639.3851873836916" y="275.3732767879622" as="sourcePoint"/>
                        <mxPoint x="495.68573479672364" y="264.31943619756555" as="targetPoint"/>
                        <Array as="points"/>
                    </mxGeometry>
                </mxCell>
                <mxCell id="199" value="" style="edgeStyle=none;orthogonalLoop=1;jettySize=auto;html=1;rounded=0;endArrow=classicThin;startSize=14;endSize=14;sourcePerimeterSpacing=8;targetPerimeterSpacing=8;curved=1;dashed=1;strokeWidth=3;strokeColor=#368DFF;endFill=1;" edge="1" parent="208">
                    <mxGeometry width="140" relative="1" as="geometry">
                        <mxPoint x="447.6790638286312" y="260.30689206325155" as="sourcePoint"/>
                        <mxPoint x="370.30243551257144" y="260.30689206325155" as="targetPoint"/>
                        <Array as="points"/>
                    </mxGeometry>
                </mxCell>
                <mxCell id="204" value="" style="edgeStyle=none;orthogonalLoop=1;jettySize=auto;html=1;rounded=0;endArrow=classicThin;startSize=14;endSize=14;sourcePerimeterSpacing=8;targetPerimeterSpacing=8;curved=1;dashed=1;strokeWidth=3;strokeColor=#368DFF;endFill=1;" edge="1" parent="208">
                    <mxGeometry width="140" relative="1" as="geometry">
                        <mxPoint x="359.24863146742007" y="287.3998553503138" as="sourcePoint"/>
                        <mxPoint x="326.0872193319659" y="320.5613771215039" as="targetPoint"/>
                        <Array as="points"/>
                    </mxGeometry>
                </mxCell>
                <mxCell id="205" value="" style="edgeStyle=none;orthogonalLoop=1;jettySize=auto;html=1;rounded=0;endArrow=classicThin;startSize=14;endSize=14;sourcePerimeterSpacing=8;targetPerimeterSpacing=8;curved=1;dashed=1;strokeWidth=3;strokeColor=#368DFF;endFill=1;" edge="1" parent="208">
                    <mxGeometry width="140" relative="1" as="geometry">
                        <mxPoint x="292.92580719651176" y="320.5613771215039" as="sourcePoint"/>
                        <mxPoint x="237.6567869707548" y="342.66905830229723" as="targetPoint"/>
                        <Array as="points"/>
                    </mxGeometry>
                </mxCell>
                <mxCell id="206" value="" style="edgeStyle=none;orthogonalLoop=1;jettySize=auto;html=1;rounded=0;endArrow=classicThin;startSize=14;endSize=14;sourcePerimeterSpacing=8;targetPerimeterSpacing=8;curved=1;dashed=1;strokeWidth=3;strokeColor=#368DFF;endFill=1;" edge="1" parent="208">
                    <mxGeometry width="140" relative="1" as="geometry">
                        <mxPoint x="204.49537483530065" y="353.7228988926939" as="sourcePoint"/>
                        <mxPoint x="171.33396269984652" y="309.5075365311072" as="targetPoint"/>
                        <Array as="points"/>
                    </mxGeometry>
                </mxCell>
                <mxCell id="207" value="" style="edgeStyle=none;orthogonalLoop=1;jettySize=auto;html=1;rounded=0;endArrow=classicThin;startSize=14;endSize=14;sourcePerimeterSpacing=8;targetPerimeterSpacing=8;curved=1;dashed=1;strokeWidth=3;strokeColor=#368DFF;endFill=1;" edge="1" parent="208">
                    <mxGeometry width="140" relative="1" as="geometry">
                        <mxPoint x="152.24404311387005" y="286.7145172337092" as="sourcePoint"/>
                        <mxPoint x="96.9750228881131" y="220.3914736913291" as="targetPoint"/>
                        <Array as="points">
                            <mxPoint x="130.13643502356726" y="264.60683605291587"/>
                        </Array>
                    </mxGeometry>
                </mxCell>
                <mxCell id="209" value="配送ルート" style="text;html=1;align=center;verticalAlign=middle;resizable=0;points=[];autosize=1;strokeColor=none;fillColor=none;fontSize=15;fontStyle=1" vertex="1" parent="208">
                    <mxGeometry x="342.1322901554404" y="109.63" width="100" height="30" as="geometry"/>
                </mxCell>
                <mxCell id="182" value="" style="group" parent="208" vertex="1" connectable="0">
                    <mxGeometry x="712.9972020725388" y="80.10957579021613" width="67.46279792746115" height="54.81337447402892" as="geometry"/>
                </mxCell>
                <mxCell id="183" value="" style="rounded=0;whiteSpace=wrap;html=1;sketch=0;fillColor=#f5f5f5;fontColor=#333333;strokeColor=#666666;" parent="182" vertex="1">
                    <mxGeometry x="59.96693149107657" y="5.138753856940212" width="7.4958664363845715" height="44.535866760148494" as="geometry"/>
                </mxCell>
                <mxCell id="184" value="" style="rounded=0;whiteSpace=wrap;html=1;sketch=0;fillColor=#e51400;strokeColor=#B20000;fontColor=#ffffff;" parent="182" vertex="1">
                    <mxGeometry x="59.974427357512965" y="33.73130736863318" width="7.488370569948187" height="15.938042731679177" as="geometry"/>
                </mxCell>
                <mxCell id="185" value="" style="shape=image;imageAspect=0;aspect=fixed;verticalLabelPosition=bottom;verticalAlign=top;sketch=0;image=data:image/png,iVBORw0KGgoAAAANSUhEUgAAAG4AAABuCAMAAADxhdbJAAAABGdBTUEAALGPC/xhBQAAAAFzUkdCAK7OHOkAAAAgY0hSTQAAeiYAAICEAAD6AAAAgOgAAHUwAADqYAAAOpgAABdwnLpRPAAAAqNQTFRFAAAAQ0A/Q0A/Q0A/Q0A/Q0A/Q0A/Q0A/Q0A/Q0A/Q0A/Q0A/Q0A/Q0A/Q0A/Q0A/Q0A/Q0A/Q0A/Q0A/Q0A/Q0A/Q0A/Q0A/Q0A/Q0A/Q0A/Q0A/Q0A/Q0A/Q0A/Q0A/Q0A/Q0A/Q0A/Q0A/Q0A/Q0A/Q0A/Q0A/Q0A/Q0A/Q0A/Q0A/Q0A/Q0A/Q0A/Q0A/Q0A/Q0A/Q0A/Q0A/Q0A/Q0A/Q0A/Q0A/Q0A/Q0A/Q0A/Q0A/Q0A/Q0A/Q0A/Q0A/Q0A/Q0A/Q0A/Q0A/Q0A/Q0A/Q0A/Q0A/Q0A/Q0A/Q0A/Q0A/Q0A/Q0A/Q0A/Q0A/Q0A/Q0A/Q0A/Q0A/Q0A/Q0A/Q0A/Q0A/Q0A/Q0A/Q0A/Q0A/Q0A/Q0A/Q0A/Q0A/Q0A/Q0A/Q0A/Q0A/Q0A/Q0A/Q0A/Q0A/Q0A/Q0A/Q0A/Q0A/Q0A/Q0A/Q0A/Q0A/Q0A/Q0A/Q0A/Q0A/Q0A/Q0A/Q0A/Q0A/Q0A/Q0A/Q0A/Q0A/Q0A/Q0A/Q0A/Q0A/Q0A/Q0A/Q0A/Q0A/Q0A/Q0A/Q0A/Q0A/Q0A/Q0A/Q0A/Q0A/Q0A/Q0A/Q0A/Q0A/Q0A/Q0A/Q0A/Q0A/Q0A/Q0A/Q0A/Q0A/Q0A/Q0A/Q0A/Q0A/Q0A/Q0A/Q0A/Q0A/Q0A/Q0A/Q0A/Q0A/Q0A/Q0A/Q0A/Q0A/Q0A/Q0A/Q0A/Q0A/Q0A/Q0A/Q0A/Q0A/Q0A/Q0A/Q0A/Q0A/Q0A/Q0A/Q0A/Q0A/Q0A/Q0A/Q0A/Q0A/Q0A/Q0A/Q0A/Q0A/Q0A/Q0A/Q0A/Q0A/Q0A/Q0A/Q0A/Q0A/Q0A/Q0A/Q0A/Q0A/Q0A/Q0A/Q0A/Q0A/Q0A/Q0A/Q0A/Q0A/Q0A/Q0A/Q0A/Q0A/Q0A/Q0A/Q0A/Q0A/Q0A/Q0A/Q0A/Q0A/////HkodswAAAN90Uk5TAAAEBgUBIoeWkjx7/KmM/t3U2Pe17ksdNdfrMxrSAy9VCAJe50df9bQTELL2aT/o1SYH+/2P7UFJ9LMUKVdaOWL5bMD4+ifhUY7iw1lWmGB+0+k+pGNG83lqhizjpzbmEb9P5TTk6pkykS7cIMLF8LzHCoIrvc04MK9ILR5MGeAXl126PXKI8UN6fQmxsKhtHCOJvkDWydmm2iExDA/K0WHP366lzsxYk63Q8lygC8gfmqrEDcFrimQSTnGhnlAYyyqFgIN2b2Yl295of4FFuaMWO4QoU7jvq+yiOlJ1QtrvB6oAAAABYktHROAoD/8wAAAACXBIWXMAAABIAAAASABGyWs+AAAFK0lEQVRo3u3a+19TZRzA8e+zcUjo4DOYyEUdciK5TRB3BOa8QG0opiUXAxJvkIKiTgGvXERbjJgagVoJKzWTTKVM0NLKsqYSXior0y7ff6UfYIBJuHPx9OrV+fw4Xpw345znOc+eMwA1NTU1NYkRjVZEfoxIzv+JMSIKCBTpPcmimII04rixlNUFCyxEj+P8xHKh48MEFh4hgYucIPR3Jk76dzhD1ORo5TjuKV3M00Q5bkosjYtX7p+ZkIjGqYxyl0pSMk5LIYpx08ea+BnTlRsIgakYk8YoxqWbkc60iOGYWbPnjN5cv4e4jEzE2Gc4EVz8s9bM0dOFP8RNtSHFaVkiuLB5j7oNxM4fgbNFsHy2VgS3AJ9buOife54dgXvByi7Owdw8IobLH+2vXGIbgXuxAAuLjPiSQRluaTEuW74CZ2iU4VauwpCSUsU4w2LeOka5d0deXo1r9FI4xo/4zkF0GUWUwJHytbMY3zmyrkISt34Dv7Gc8ZkDLsMuidvE083LGZ85qKyScu5I9RaWbt3G+czBdklXJvHfwdKcnZzPXI20cUdq821YUadRiANSn5+Ju+ZrFOIAGnZbcd4e7WPmXklzDFSygWLuq47hNZrk5mxOuzcjIlrtwzOirFxDDn1EkUlDnJbjGIZI4AxNrzWP3iLXIJe8d9++/a+3EPGcoIUfIiKatrxBlOEKQiIiVvB8q0EZrs2/tvbAQTwUrww3zg/AFYRvtijIvYVvh6ncKBzRxq8/3OBiHtjHqm/fltLByM8R9/jd71To3g06Uj94dCas6mhy6rH3Slxyc0z18VDa/+ljVdPAOpwcTrQhItLIZheRleMc71M0BsftPeFEXNDZf4joD1i0bzn5oQ1P7eHk5Mj2o8geOj1Rq7HsjLPi6joOAGDWLgzN6OAmtsaaznTJybn38+y+LA4AgKlfa6Uf+QMApOsx0QUA8WWNHzNyciVO3OrdtSCWkzSnHABgoQnPMgDAJEyX9VKJ/oSaZw9ej6Q8aC4HAJBWgAcncPKPu8M6PDdsx8nQ3U839CCddr6Fk5s7cIq/MMIWAlOno6jf/KlF5mE+2ZS5xPtqlsPhcDja/QAANHmJZkRj2+kEWbnTqO/0vlpmt9vt9p7PBqaayZvMiMag9XIO84tW0yXvJ7vPWZaluNV7KhnLnDY9ssfdMnLhqfQL73Luy+bmxmTscQ+dwcuFa9BZR+TjLF9hRcrQD75egcuGL6O1V3j6DScfx33L8o2DgMHD2q4CkI72a9f7X+nU4wWDjLPK0l6MXOjdUWj6DnU1AFxfqfGGBgBAc4WnhTK+O9BcisXia24AgI7OgzTzphaA3LLjsSQGgEurwNAmWW9A7mwrmm/3pSUtmelE0/c/AAB0BPHYe+nHwEIdpfndsnIk4U4qIm8uYBELzl4mAACkeiOPrN3JI3/uJ3lvr0Aqf/4llaWUvds2xT1wbCbqVydF5O/dr2YemlV6awGgPQazRS6NmJW/nW9tvZoXPzRDkoT01vtnbiR1k79NYtoydBatq4m6Y6UeThwnZOFHfr+LxtzcNZlYHE4ePwddN+9RRORLi3x+mieFI5XpjQEBAVWBPu8N/6ceqKnc/4MjDX0ej6eHmgM8ArsTgxGFHs/VaiFPCrk/bCgp/rhLAKeZgXyBXXROFm93C+MijySJ7mKIYK60BkRnOaFyD3DJt8JEFzVJMGeqCBZdhFEYZ7hBpY073NElZFa53jpGUgF/coJmMVHfapLh+01qampqag/2F8kj4HP3lrobAAAAJXRFWHRkYXRlOmNyZWF0ZQAyMDIwLTA5LTI0VDE0OjA3OjU0KzA5OjAwrB/SCwAAACV0RVh0ZGF0ZTptb2RpZnkAMjAyMC0wOS0yNFQxNDowNzo1NCswOTowMN1CarcAAAAZdEVYdFNvZnR3YXJlAEFkb2JlIEltYWdlUmVhZHlxyWU8AAAAAElFTkSuQmCC;" parent="182" vertex="1">
                    <mxGeometry width="54.81319156183707" height="54.81319156183707" as="geometry"/>
                </mxCell>
                <mxCell id="210" value="" style="group" vertex="1" connectable="0" parent="208">
                    <mxGeometry x="527.0493886010364" y="193.95452628857316" width="67.46279792746115" height="54.81337447402892" as="geometry"/>
                </mxCell>
                <mxCell id="211" value="" style="rounded=0;whiteSpace=wrap;html=1;sketch=0;fillColor=#f5f5f5;fontColor=#333333;strokeColor=#666666;" vertex="1" parent="210">
                    <mxGeometry x="59.96693149107657" y="5.138753856940212" width="7.4958664363845715" height="44.535866760148494" as="geometry"/>
                </mxCell>
                <mxCell id="212" value="" style="rounded=0;whiteSpace=wrap;html=1;sketch=0;fillColor=#60a917;strokeColor=#2D7600;fontColor=#ffffff;" vertex="1" parent="210">
                    <mxGeometry x="59.96693149107657" y="11.990425666193827" width="7.4958664363845715" height="37.68419495089488" as="geometry"/>
                </mxCell>
                <mxCell id="213" value="" style="shape=image;imageAspect=0;aspect=fixed;verticalLabelPosition=bottom;verticalAlign=top;sketch=0;image=data:image/png,iVBORw0KGgoAAAANSUhEUgAAAG4AAABuCAMAAADxhdbJAAAABGdBTUEAALGPC/xhBQAAAAFzUkdCAK7OHOkAAAAgY0hSTQAAeiYAAICEAAD6AAAAgOgAAHUwAADqYAAAOpgAABdwnLpRPAAAAqNQTFRFAAAAQ0A/Q0A/Q0A/Q0A/Q0A/Q0A/Q0A/Q0A/Q0A/Q0A/Q0A/Q0A/Q0A/Q0A/Q0A/Q0A/Q0A/Q0A/Q0A/Q0A/Q0A/Q0A/Q0A/Q0A/Q0A/Q0A/Q0A/Q0A/Q0A/Q0A/Q0A/Q0A/Q0A/Q0A/Q0A/Q0A/Q0A/Q0A/Q0A/Q0A/Q0A/Q0A/Q0A/Q0A/Q0A/Q0A/Q0A/Q0A/Q0A/Q0A/Q0A/Q0A/Q0A/Q0A/Q0A/Q0A/Q0A/Q0A/Q0A/Q0A/Q0A/Q0A/Q0A/Q0A/Q0A/Q0A/Q0A/Q0A/Q0A/Q0A/Q0A/Q0A/Q0A/Q0A/Q0A/Q0A/Q0A/Q0A/Q0A/Q0A/Q0A/Q0A/Q0A/Q0A/Q0A/Q0A/Q0A/Q0A/Q0A/Q0A/Q0A/Q0A/Q0A/Q0A/Q0A/Q0A/Q0A/Q0A/Q0A/Q0A/Q0A/Q0A/Q0A/Q0A/Q0A/Q0A/Q0A/Q0A/Q0A/Q0A/Q0A/Q0A/Q0A/Q0A/Q0A/Q0A/Q0A/Q0A/Q0A/Q0A/Q0A/Q0A/Q0A/Q0A/Q0A/Q0A/Q0A/Q0A/Q0A/Q0A/Q0A/Q0A/Q0A/Q0A/Q0A/Q0A/Q0A/Q0A/Q0A/Q0A/Q0A/Q0A/Q0A/Q0A/Q0A/Q0A/Q0A/Q0A/Q0A/Q0A/Q0A/Q0A/Q0A/Q0A/Q0A/Q0A/Q0A/Q0A/Q0A/Q0A/Q0A/Q0A/Q0A/Q0A/Q0A/Q0A/Q0A/Q0A/Q0A/Q0A/Q0A/Q0A/Q0A/Q0A/Q0A/Q0A/Q0A/Q0A/Q0A/Q0A/Q0A/Q0A/Q0A/Q0A/Q0A/Q0A/Q0A/Q0A/Q0A/Q0A/Q0A/Q0A/Q0A/Q0A/Q0A/Q0A/Q0A/Q0A/Q0A/Q0A/Q0A/Q0A/Q0A/Q0A/Q0A/Q0A/Q0A/Q0A/Q0A/Q0A/Q0A/Q0A/Q0A/Q0A/Q0A/Q0A/Q0A/Q0A/Q0A/Q0A/Q0A/Q0A/Q0A/////HkodswAAAN90Uk5TAAAEBgUBIoeWkjx7/KmM/t3U2Pe17ksdNdfrMxrSAy9VCAJe50df9bQTELL2aT/o1SYH+/2P7UFJ9LMUKVdaOWL5bMD4+ifhUY7iw1lWmGB+0+k+pGNG83lqhizjpzbmEb9P5TTk6pkykS7cIMLF8LzHCoIrvc04MK9ILR5MGeAXl126PXKI8UN6fQmxsKhtHCOJvkDWydmm2iExDA/K0WHP366lzsxYk63Q8lygC8gfmqrEDcFrimQSTnGhnlAYyyqFgIN2b2Yl295of4FFuaMWO4QoU7jvq+yiOlJ1QtrvB6oAAAABYktHROAoD/8wAAAACXBIWXMAAABIAAAASABGyWs+AAAFK0lEQVRo3u3a+19TZRzA8e+zcUjo4DOYyEUdciK5TRB3BOa8QG0opiUXAxJvkIKiTgGvXERbjJgagVoJKzWTTKVM0NLKsqYSXior0y7ff6UfYIBJuHPx9OrV+fw4Xpw345znOc+eMwA1NTU1NYkRjVZEfoxIzv+JMSIKCBTpPcmimII04rixlNUFCyxEj+P8xHKh48MEFh4hgYucIPR3Jk76dzhD1ORo5TjuKV3M00Q5bkosjYtX7p+ZkIjGqYxyl0pSMk5LIYpx08ea+BnTlRsIgakYk8YoxqWbkc60iOGYWbPnjN5cv4e4jEzE2Gc4EVz8s9bM0dOFP8RNtSHFaVkiuLB5j7oNxM4fgbNFsHy2VgS3AJ9buOife54dgXvByi7Owdw8IobLH+2vXGIbgXuxAAuLjPiSQRluaTEuW74CZ2iU4VauwpCSUsU4w2LeOka5d0deXo1r9FI4xo/4zkF0GUWUwJHytbMY3zmyrkISt34Dv7Gc8ZkDLsMuidvE083LGZ85qKyScu5I9RaWbt3G+czBdklXJvHfwdKcnZzPXI20cUdq821YUadRiANSn5+Ju+ZrFOIAGnZbcd4e7WPmXklzDFSygWLuq47hNZrk5mxOuzcjIlrtwzOirFxDDn1EkUlDnJbjGIZI4AxNrzWP3iLXIJe8d9++/a+3EPGcoIUfIiKatrxBlOEKQiIiVvB8q0EZrs2/tvbAQTwUrww3zg/AFYRvtijIvYVvh6ncKBzRxq8/3OBiHtjHqm/fltLByM8R9/jd71To3g06Uj94dCas6mhy6rH3Slxyc0z18VDa/+ljVdPAOpwcTrQhItLIZheRleMc71M0BsftPeFEXNDZf4joD1i0bzn5oQ1P7eHk5Mj2o8geOj1Rq7HsjLPi6joOAGDWLgzN6OAmtsaaznTJybn38+y+LA4AgKlfa6Uf+QMApOsx0QUA8WWNHzNyciVO3OrdtSCWkzSnHABgoQnPMgDAJEyX9VKJ/oSaZw9ej6Q8aC4HAJBWgAcncPKPu8M6PDdsx8nQ3U839CCddr6Fk5s7cIq/MMIWAlOno6jf/KlF5mE+2ZS5xPtqlsPhcDja/QAANHmJZkRj2+kEWbnTqO/0vlpmt9vt9p7PBqaayZvMiMag9XIO84tW0yXvJ7vPWZaluNV7KhnLnDY9ssfdMnLhqfQL73Luy+bmxmTscQ+dwcuFa9BZR+TjLF9hRcrQD75egcuGL6O1V3j6DScfx33L8o2DgMHD2q4CkI72a9f7X+nU4wWDjLPK0l6MXOjdUWj6DnU1AFxfqfGGBgBAc4WnhTK+O9BcisXia24AgI7OgzTzphaA3LLjsSQGgEurwNAmWW9A7mwrmm/3pSUtmelE0/c/AAB0BPHYe+nHwEIdpfndsnIk4U4qIm8uYBELzl4mAACkeiOPrN3JI3/uJ3lvr0Aqf/4llaWUvds2xT1wbCbqVydF5O/dr2YemlV6awGgPQazRS6NmJW/nW9tvZoXPzRDkoT01vtnbiR1k79NYtoydBatq4m6Y6UeThwnZOFHfr+LxtzcNZlYHE4ePwddN+9RRORLi3x+mieFI5XpjQEBAVWBPu8N/6ceqKnc/4MjDX0ej6eHmgM8ArsTgxGFHs/VaiFPCrk/bCgp/rhLAKeZgXyBXXROFm93C+MijySJ7mKIYK60BkRnOaFyD3DJt8JEFzVJMGeqCBZdhFEYZ7hBpY073NElZFa53jpGUgF/coJmMVHfapLh+01qampqag/2F8kj4HP3lrobAAAAJXRFWHRkYXRlOmNyZWF0ZQAyMDIwLTA5LTI0VDE0OjA3OjU0KzA5OjAwrB/SCwAAACV0RVh0ZGF0ZTptb2RpZnkAMjAyMC0wOS0yNFQxNDowNzo1NCswOTowMN1CarcAAAAZdEVYdFNvZnR3YXJlAEFkb2JlIEltYWdlUmVhZHlxyWU8AAAAAElFTkSuQmCC;" vertex="1" parent="210">
                    <mxGeometry width="54.81319156183707" height="54.81319156183707" as="geometry"/>
                </mxCell>
                <mxCell id="200" value="" style="group" vertex="1" connectable="0" parent="208">
                    <mxGeometry x="223.4747645301918" y="349.9966255259711" width="67.46279792746115" height="54.81337447402892" as="geometry"/>
                </mxCell>
                <mxCell id="201" value="" style="rounded=0;whiteSpace=wrap;html=1;sketch=0;fillColor=#f5f5f5;fontColor=#333333;strokeColor=#666666;" vertex="1" parent="200">
                    <mxGeometry x="59.96693149107657" y="5.138753856940212" width="7.4958664363845715" height="44.535866760148494" as="geometry"/>
                </mxCell>
                <mxCell id="202" value="" style="rounded=0;whiteSpace=wrap;html=1;sketch=0;fillColor=#fa6800;strokeColor=#C73500;fontColor=#000000;" vertex="1" parent="200">
                    <mxGeometry x="59.974427357512965" y="33.73130736863318" width="7.488370569948187" height="15.938042731679177" as="geometry"/>
                </mxCell>
                <mxCell id="203" value="" style="shape=image;imageAspect=0;aspect=fixed;verticalLabelPosition=bottom;verticalAlign=top;sketch=0;image=data:image/png,iVBORw0KGgoAAAANSUhEUgAAAG4AAABuCAMAAADxhdbJAAAABGdBTUEAALGPC/xhBQAAAAFzUkdCAK7OHOkAAAAgY0hSTQAAeiYAAICEAAD6AAAAgOgAAHUwAADqYAAAOpgAABdwnLpRPAAAAqNQTFRFAAAAQ0A/Q0A/Q0A/Q0A/Q0A/Q0A/Q0A/Q0A/Q0A/Q0A/Q0A/Q0A/Q0A/Q0A/Q0A/Q0A/Q0A/Q0A/Q0A/Q0A/Q0A/Q0A/Q0A/Q0A/Q0A/Q0A/Q0A/Q0A/Q0A/Q0A/Q0A/Q0A/Q0A/Q0A/Q0A/Q0A/Q0A/Q0A/Q0A/Q0A/Q0A/Q0A/Q0A/Q0A/Q0A/Q0A/Q0A/Q0A/Q0A/Q0A/Q0A/Q0A/Q0A/Q0A/Q0A/Q0A/Q0A/Q0A/Q0A/Q0A/Q0A/Q0A/Q0A/Q0A/Q0A/Q0A/Q0A/Q0A/Q0A/Q0A/Q0A/Q0A/Q0A/Q0A/Q0A/Q0A/Q0A/Q0A/Q0A/Q0A/Q0A/Q0A/Q0A/Q0A/Q0A/Q0A/Q0A/Q0A/Q0A/Q0A/Q0A/Q0A/Q0A/Q0A/Q0A/Q0A/Q0A/Q0A/Q0A/Q0A/Q0A/Q0A/Q0A/Q0A/Q0A/Q0A/Q0A/Q0A/Q0A/Q0A/Q0A/Q0A/Q0A/Q0A/Q0A/Q0A/Q0A/Q0A/Q0A/Q0A/Q0A/Q0A/Q0A/Q0A/Q0A/Q0A/Q0A/Q0A/Q0A/Q0A/Q0A/Q0A/Q0A/Q0A/Q0A/Q0A/Q0A/Q0A/Q0A/Q0A/Q0A/Q0A/Q0A/Q0A/Q0A/Q0A/Q0A/Q0A/Q0A/Q0A/Q0A/Q0A/Q0A/Q0A/Q0A/Q0A/Q0A/Q0A/Q0A/Q0A/Q0A/Q0A/Q0A/Q0A/Q0A/Q0A/Q0A/Q0A/Q0A/Q0A/Q0A/Q0A/Q0A/Q0A/Q0A/Q0A/Q0A/Q0A/Q0A/Q0A/Q0A/Q0A/Q0A/Q0A/Q0A/Q0A/Q0A/Q0A/Q0A/Q0A/Q0A/Q0A/Q0A/Q0A/Q0A/Q0A/Q0A/Q0A/Q0A/Q0A/Q0A/Q0A/Q0A/Q0A/Q0A/Q0A/Q0A/Q0A/Q0A/Q0A/Q0A/Q0A/Q0A/Q0A/Q0A/Q0A/Q0A/Q0A/Q0A/Q0A/Q0A/Q0A/Q0A/////HkodswAAAN90Uk5TAAAEBgUBIoeWkjx7/KmM/t3U2Pe17ksdNdfrMxrSAy9VCAJe50df9bQTELL2aT/o1SYH+/2P7UFJ9LMUKVdaOWL5bMD4+ifhUY7iw1lWmGB+0+k+pGNG83lqhizjpzbmEb9P5TTk6pkykS7cIMLF8LzHCoIrvc04MK9ILR5MGeAXl126PXKI8UN6fQmxsKhtHCOJvkDWydmm2iExDA/K0WHP366lzsxYk63Q8lygC8gfmqrEDcFrimQSTnGhnlAYyyqFgIN2b2Yl295of4FFuaMWO4QoU7jvq+yiOlJ1QtrvB6oAAAABYktHROAoD/8wAAAACXBIWXMAAABIAAAASABGyWs+AAAFK0lEQVRo3u3a+19TZRzA8e+zcUjo4DOYyEUdciK5TRB3BOa8QG0opiUXAxJvkIKiTgGvXERbjJgagVoJKzWTTKVM0NLKsqYSXior0y7ff6UfYIBJuHPx9OrV+fw4Xpw345znOc+eMwA1NTU1NYkRjVZEfoxIzv+JMSIKCBTpPcmimII04rixlNUFCyxEj+P8xHKh48MEFh4hgYucIPR3Jk76dzhD1ORo5TjuKV3M00Q5bkosjYtX7p+ZkIjGqYxyl0pSMk5LIYpx08ea+BnTlRsIgakYk8YoxqWbkc60iOGYWbPnjN5cv4e4jEzE2Gc4EVz8s9bM0dOFP8RNtSHFaVkiuLB5j7oNxM4fgbNFsHy2VgS3AJ9buOife54dgXvByi7Owdw8IobLH+2vXGIbgXuxAAuLjPiSQRluaTEuW74CZ2iU4VauwpCSUsU4w2LeOka5d0deXo1r9FI4xo/4zkF0GUWUwJHytbMY3zmyrkISt34Dv7Gc8ZkDLsMuidvE083LGZ85qKyScu5I9RaWbt3G+czBdklXJvHfwdKcnZzPXI20cUdq821YUadRiANSn5+Ju+ZrFOIAGnZbcd4e7WPmXklzDFSygWLuq47hNZrk5mxOuzcjIlrtwzOirFxDDn1EkUlDnJbjGIZI4AxNrzWP3iLXIJe8d9++/a+3EPGcoIUfIiKatrxBlOEKQiIiVvB8q0EZrs2/tvbAQTwUrww3zg/AFYRvtijIvYVvh6ncKBzRxq8/3OBiHtjHqm/fltLByM8R9/jd71To3g06Uj94dCas6mhy6rH3Slxyc0z18VDa/+ljVdPAOpwcTrQhItLIZheRleMc71M0BsftPeFEXNDZf4joD1i0bzn5oQ1P7eHk5Mj2o8geOj1Rq7HsjLPi6joOAGDWLgzN6OAmtsaaznTJybn38+y+LA4AgKlfa6Uf+QMApOsx0QUA8WWNHzNyciVO3OrdtSCWkzSnHABgoQnPMgDAJEyX9VKJ/oSaZw9ej6Q8aC4HAJBWgAcncPKPu8M6PDdsx8nQ3U839CCddr6Fk5s7cIq/MMIWAlOno6jf/KlF5mE+2ZS5xPtqlsPhcDja/QAANHmJZkRj2+kEWbnTqO/0vlpmt9vt9p7PBqaayZvMiMag9XIO84tW0yXvJ7vPWZaluNV7KhnLnDY9ssfdMnLhqfQL73Luy+bmxmTscQ+dwcuFa9BZR+TjLF9hRcrQD75egcuGL6O1V3j6DScfx33L8o2DgMHD2q4CkI72a9f7X+nU4wWDjLPK0l6MXOjdUWj6DnU1AFxfqfGGBgBAc4WnhTK+O9BcisXia24AgI7OgzTzphaA3LLjsSQGgEurwNAmWW9A7mwrmm/3pSUtmelE0/c/AAB0BPHYe+nHwEIdpfndsnIk4U4qIm8uYBELzl4mAACkeiOPrN3JI3/uJ3lvr0Aqf/4llaWUvds2xT1wbCbqVydF5O/dr2YemlV6awGgPQazRS6NmJW/nW9tvZoXPzRDkoT01vtnbiR1k79NYtoydBatq4m6Y6UeThwnZOFHfr+LxtzcNZlYHE4ePwddN+9RRORLi3x+mieFI5XpjQEBAVWBPu8N/6ceqKnc/4MjDX0ej6eHmgM8ArsTgxGFHs/VaiFPCrk/bCgp/rhLAKeZgXyBXXROFm93C+MijySJ7mKIYK60BkRnOaFyD3DJt8JEFzVJMGeqCBZdhFEYZ7hBpY073NElZFa53jpGUgF/coJmMVHfapLh+01qampqag/2F8kj4HP3lrobAAAAJXRFWHRkYXRlOmNyZWF0ZQAyMDIwLTA5LTI0VDE0OjA3OjU0KzA5OjAwrB/SCwAAACV0RVh0ZGF0ZTptb2RpZnkAMjAyMC0wOS0yNFQxNDowNzo1NCswOTowMN1CarcAAAAZdEVYdFNvZnR3YXJlAEFkb2JlIEltYWdlUmVhZHlxyWU8AAAAAElFTkSuQmCC;" vertex="1" parent="200">
                    <mxGeometry width="54.81319156183707" height="54.81319156183707" as="geometry"/>
                </mxCell>
            </root>
        </mxGraphModel>
    </diagram>
</mxfile>